<?xml version="1.0" standalone="yes"?>
<svg xmlns="http://www.w3.org/2000/svg" width="480" height="480">
<path style="fill:#fefdfd; stroke:none;" d="M0 0L0 480L480 480L480 0L234 0C234.132 16.0038 240.256 31.8154 249.09 45C256.346 55.8304 266.704 65.1164 267 79C279.799 72.977 273.778 59.1172 270 49C280.331 52.1576 288.938 71.7048 287.812 82C287.476 85.0653 280.943 97.0746 283.643 98.8241C286.348 100.576 291.61 93.2206 294 92C296.534 99.5544 298.878 104.104 296 112L297 113C318.797 105.442 306.316 85.6808 304 70C322.434 81.5308 337.558 106.955 330.535 129C327.986 137.003 308.993 152.696 315.603 160.581C319.466 165.188 326.591 164.068 331 161.146C339.723 155.364 345.709 144.154 347.535 134C348.02 131.309 346.287 121.271 351.073 122.482C355.378 123.572 359.406 128.653 361.957 132.004C376.956 151.704 365.974 170.497 352.247 187C348.974 190.935 339.633 198.55 339.636 203.892C339.639 210.586 351.405 208.822 354.999 207.271C359.182 205.466 362.079 199.802 366.14 198.752C372.982 196.982 371.092 212.626 370.561 216C367.251 237.028 351.357 254.716 332 262.688C325.796 265.243 312.279 265.173 307.742 269.742C305.404 272.097 305.745 276.926 305.246 280C304.014 287.6 297.727 306.868 301.269 313.671C307.774 326.17 330.831 325.824 339.815 317.532C349.167 308.899 348.86 293.449 343 283C338.94 285.442 335.018 288.414 330 287.771C322.082 286.756 319.061 279.104 324.279 273.094C332.611 263.495 343.356 268.338 348.687 278C359.975 298.461 353.58 329.237 326 331.076C315.314 331.789 307.8 325.242 298 323C296.86 337.328 292.402 352.134 288.735 366C281.767 392.346 273.995 419.486 259.796 443C254.356 452.009 248.152 460.789 240 467.557C236.941 470.096 233.215 473.275 229 471.588C216.474 466.576 210.257 445.466 206.053 434C192.336 396.588 186.477 357.468 177 319C169.163 322.707 162.817 327.187 154 328.561C126.39 332.863 113.303 300.58 123.821 279C128.777 268.832 139.734 259.508 149.66 270.188C155.246 276.199 152.715 284.873 144 285.497C139.27 285.836 135.095 282.9 131 281C126.645 290.365 124.786 301.935 130.919 310.996C139.781 324.09 163.552 324.649 173.396 311.671C176.006 308.231 174.326 302.891 173.725 299C171.975 287.662 172.917 270.476 168.397 260.148C166.453 255.707 158.057 255.978 154 254.641C145.879 251.965 138.792 246.983 133.789 240C121.528 222.887 126.715 203.041 122.319 184C120.216 174.886 111.893 169.58 109 161L132 175L145.561 137L142 107L167 130C167.464 107.533 183.602 100.053 192.89 82C196.874 74.2584 198.237 66.6394 197.985 58C197.892 54.8488 195.343 49.0264 198.356 46.7122C203.644 42.6511 205.889 54.0898 206.626 57C210.209 71.1485 211.621 83.5339 211 98C222.074 91.1382 214.481 76.3767 214.039 66C213.544 54.3676 218.47 43.1067 221.255 32C223.895 21.4676 224.491 10.5093 227 0L0 0z"/>
<path style="fill:#69735f; stroke:none;" d="M227 0C225.086 24.2501 212.099 48.6927 215.579 73C216.873 82.0364 221.387 94.0356 210 98C211.757 84.0963 209.752 71.5117 206.373 58C205.688 55.2584 204.246 44.0721 199.278 46.4074C197.09 47.4356 197.404 50.0647 197.765 52.0038C199.064 58.9975 199.204 65.0504 197.254 72C193.059 86.9456 181.161 93.6478 173.61 106.004C169.025 113.505 168.001 122.424 168 131C159.124 124.208 153.398 111.112 142 108C144.833 118.599 147.539 128.887 145.535 140C143.262 152.611 135.231 163.518 132 176L110 162C113.067 171.246 121.43 177.034 123.485 187C127.391 205.933 121.829 226.875 136.188 242.985C141.341 248.766 148.608 252.786 156 254.957C160.639 256.319 165.204 255.699 169 259L170 259C168.461 253.74 159.663 254.465 155 252.986C146.502 250.291 138.769 244.562 133.912 237C123.741 221.166 127.856 202.313 124.569 185C123.121 177.367 117.875 172.382 114 166L134 178C134.236 166.914 140.657 158.925 144.536 149C149.24 136.966 149.049 122.889 144 111L168 133C170.028 124.506 169.829 115.808 174.363 108C178.013 101.715 184.347 97.6703 188.761 91.9854C198.803 79.0526 202.993 63.6157 198 48L202 47L209.715 83L210 100C216.477 97.7904 219.392 92.802 218.826 86C217.838 74.1268 214.835 63.9322 217.654 52C220.505 39.9318 224.371 28.299 226.275 16C227.086 10.755 229.14 5.10196 227 0z"/>
<path style="fill:#342b28; stroke:none;" d="M228 0C227.937 22.8951 215.046 44.3216 216.039 67C216.576 79.251 223.903 92.763 210 100L209.83 83L202 47L198 48C201.779 64.4835 198.849 78.4033 187.985 91.9854C183.747 97.2835 177.81 101.066 174.363 107C169.719 114.996 169.641 124.168 168 133L144 111C147.756 122.823 149.185 134.006 145.251 146C141.57 157.223 134.104 165.657 134 178L114 166C116.871 172.782 122.614 177.568 124.319 185C129.802 208.885 121.6 240.515 151 251.931C157.1 254.3 163.55 255.184 170 256C170.106 268.851 172.697 282.316 174.754 295C175.498 299.591 178.31 307.586 175.382 311.699C156.961 337.573 118.181 316.013 126.914 287C131.218 272.699 146.835 292.723 151.164 278.956C153.687 270.932 142.296 265.792 136.001 267.573C116.231 273.169 118.97 308.967 131.015 319.815C146.315 333.593 162.565 324.206 178 317C188.818 355.495 194.144 394.983 207.344 433C211.017 443.579 217.664 466.755 230 470.15C241.281 473.254 254.295 449.548 258.799 442C273.628 417.151 281.657 387.873 288.625 360C290.776 351.395 292.66 342.697 294.4 334C295.054 330.726 295.08 325.089 297.43 322.531C299.938 319.801 304.61 323.846 307 325.03C314.461 328.727 323.765 330.371 332 328.471C346.076 325.222 353.842 310.609 352.91 297C352.334 288.585 349.089 276.846 341.957 271.653C335.529 266.972 323.832 270.002 323.207 278.996C322.261 292.608 339.345 281.236 343.725 283.113C350.851 286.168 349.654 303.426 347.387 309C340.729 325.37 307.13 333.473 299.317 312.985C295.952 304.159 303.025 286.437 303.925 277C304.278 273.301 304.514 269.117 308.133 267.028C312.228 264.664 319.332 264.916 324 263.762C331.7 261.857 339.689 258.119 346 253.323C364.09 239.578 369 221.577 369 200C361.192 201.259 357.697 210.038 349 210.606C344.608 210.893 336.425 207.676 338.466 201.999C340.538 196.238 347.704 190.725 351.576 186C364.339 170.422 374.698 151.809 361.211 133C358.032 128.565 354.087 124.971 349 123C351.46 136.26 344.79 150.817 334.961 159.815C329.037 165.237 318.137 168.954 313.18 159.895C308.386 151.135 325.407 138.238 328.532 130C336.121 109.998 323.346 85.5146 307 74C309.415 90.1214 318.748 111.29 294 115C295.367 106.925 296.623 101.792 293 94C290.656 95.8882 285.95 102.736 282.478 100.248C278.496 97.3956 285.342 86.9572 285.816 83C287.145 71.893 281.156 62.5959 275 54L274 54C275.621 64.9725 280.197 76.1703 266 81C262.833 64.0006 253.058 54.4644 244.453 40C237.087 27.6185 233.129 14.3013 232 0L228 0z"/>
<path style="fill:#69735f; stroke:none;" d="M232 0C233.399 32.5909 258.858 51.3446 266 81C280.461 78.0802 276.356 64.1848 274 54L275 54C279.394 62.8334 286.485 70.3822 285.892 81C285.62 85.8732 277.951 96.5614 281.758 100.377C285.65 104.279 290.859 96.4415 293 94L294 115C318.405 112.856 310.705 89.6414 307 74C320.782 87.7823 335.198 106.025 329.211 127C326.384 136.905 307.123 150.518 313.179 160.787C318.015 168.988 329.279 165.558 334.961 160.671C344.946 152.081 352.112 136.069 349 123C353.467 125.582 357.302 128.894 360.471 133C375.016 151.849 363.716 170.308 350.75 186C346.988 190.553 338.549 196.952 337.662 202.996C336.54 210.642 348.136 211.405 353 210.072C359.623 208.256 362.74 201.836 369 200C369 222.205 362.784 240.46 344 254.073C337.628 258.691 329.66 262.214 322 263.988C317.805 264.96 310.859 264.763 307.279 267.028C303.686 269.3 304.181 274.345 303.715 278C302.499 287.52 296.234 303.81 298.774 312.985C300.019 317.483 306.086 320.34 310 322.096C323.656 328.225 341.26 325.063 347.387 310C349.651 304.432 351.231 285.087 343.725 282.306C340.055 280.945 322.167 292.454 323.466 278.996C324.252 270.861 334.983 267.416 340.985 271.653C348.616 277.039 352.384 289.022 352.907 298C353.679 311.275 344.247 325.414 331 328.471C322.434 330.447 313.542 328.014 306 323.972C303.622 322.698 299.363 319.506 297.013 322.423C294.874 325.077 294.853 330.735 294.2 334C292.461 342.696 290.569 351.408 288.37 360C281.32 387.555 273.485 416.392 258.799 441C253.612 449.692 247.894 458.713 239.985 465.192C237.354 467.348 233.718 470.823 230 469.596C217.71 465.543 211.114 442.856 207.344 432C198.596 406.805 192.331 380.928 186.235 355C183.319 342.602 182.46 328.906 178 317C162.642 321.86 149.87 333.578 134 321.468C120.705 311.322 119.262 295.685 125.207 281C127.408 275.562 130.837 269.175 137 267.588C149.668 264.326 157.116 283.586 140 284L140 285C158.856 284.842 152.769 264.14 137.001 266.134C122.489 267.969 118.145 293.661 120.9 305C127.553 332.387 158.251 332.296 177 318C187.017 356.702 192.637 396.205 206.414 434C210.438 445.038 216.644 466.907 229 471.242C241.086 475.482 255.397 450.274 260.127 442C280.308 406.704 292.592 362.162 298 322C306.248 325.002 312.989 329.7 322 330.535C353.223 333.43 360.66 296.275 346.812 275.015C341.54 266.923 329.487 265.283 323.742 274.043C319.609 280.346 323.596 287.427 331 287.606C335.914 287.724 340.078 284.5 344 282C348.021 297.042 351.002 311.65 334.999 321.221C326.653 326.212 301.298 323.532 300.238 310.985C299.46 301.773 303.003 289.183 304.615 280C305.165 276.865 305.302 271.976 307.6 269.564C312.277 264.652 325.603 264.908 332 262.384C349.339 255.545 362.196 241.599 368.162 224C369.375 220.421 373.249 198.868 366.945 198.867C363.066 198.867 359.505 205.362 355.996 207.084C352.228 208.934 339.21 211.62 339.207 203.945C339.205 198.599 349.822 189.903 353.231 185.83C366.618 169.838 375.156 150.828 361.79 132.004C358.359 127.171 353.992 122.908 348 122C348 135.961 345.479 147.803 334.985 157.957C329.973 162.807 316.764 168.537 313.698 157.985C311.504 150.436 325.622 139.816 328.651 133C335.928 116.628 330.025 99.8716 320.333 86.0401C316.6 80.7112 311.473 73.7617 305 72C308.669 89.5527 316.933 104.488 296 114L295 113C298.012 105.862 296.692 99.9898 294 93C291.255 93.8441 286.059 100.741 283.552 99.0787C280.866 97.2983 286.913 84.5347 286.985 81C287.214 69.5805 281.043 56.9787 272 50C272.663 62.9546 280.31 70.5971 267 80C260.014 50.737 234 32.1949 234 0L232 0z"/>
<path style="fill:#f2c748; stroke:none;" d="M226 1L226 5L227 5L226 1M234 7L234 12L235 12L234 7M225 9L225 14L226 14L225 9M235.333 13.6667L235.667 14.3333L235.333 13.6667M224 15L224 19L225 19L224 15M236 17L236 20L237 20L236 17M223 21L223 25L224 25L223 21M237.333 21.6667L237.667 22.3333L237.333 21.6667z"/>
<path style="fill:#69735f; stroke:none;" d="M230 22L226 39L227 39L230 22z"/>
<path style="fill:#f2c748; stroke:none;" d="M238.333 24.6667L238.667 25.3333L238.333 24.6667M222 25L222 28L223 28L222 25z"/>
<path style="fill:#ce4a41; stroke:none;" d="M230 25L232 27L232 25L230 25z"/>
<path style="fill:#f2c748; stroke:none;" d="M230 26C229.045 36.9471 223.491 47.1201 222.184 58C220.345 73.3206 233.716 100.246 211 105.634C207.733 106.409 204.321 106.12 201 106L204 79C199.262 82.4731 196.821 90.2083 193.24 95C184.339 106.909 176.067 112.027 174.975 128C174.697 132.074 175.843 147.746 170.256 147.843C165.101 147.932 158.502 131.454 154 128L140.301 173L143 207L132 187L131 187C131.552 213.736 133.01 248.71 168 249C166.319 241.936 168.03 235.074 169 228C172.879 199.703 185.421 181.346 210 167C208.239 157.028 214.296 155.106 223 154C219.122 138.482 209.18 122.831 218.761 107C222.32 101.118 228.105 94.2794 235 92.4043C252.95 87.5231 269.85 107.747 266.532 125C265.276 131.526 257.896 137.154 253.028 129.606C249.304 123.834 254.06 115.537 249.911 109.109C241.64 96.2917 230.688 114.067 229.439 122C228.036 130.913 229.702 148.108 239.093 152.643C248.132 157.007 265.924 148.245 263 165C270.806 169.118 279.077 171.559 286 177.326C310.779 197.967 313.561 230.066 308 260C334.47 259.781 361.783 239.918 363 212C355.491 215.08 325.571 220.101 331.333 202C332.815 197.345 337.348 193.633 340.41 190C351.346 177.021 373.936 152.276 355 136C351.21 149.096 343.9 163.397 331 169.597C322.095 173.877 308.101 169.995 306.232 159C304.466 148.609 314.527 142.66 319.451 135C327.041 123.194 325.723 108.828 319 97L318 97C315.479 116.506 294.939 126.538 277 120L277 118C282.61 115.579 287.124 112.497 290 107C283.161 108.747 272.782 105.321 274.396 96C275.399 90.2024 279.709 86.3524 280 80C274.635 82.4571 264.984 93.1921 258.322 89.6474C254.577 87.6548 259.638 74.7706 257.637 70C253.756 60.7498 245.783 53.3983 240.436 45C236.663 39.0736 234.556 31.1635 230 26z"/>
<path style="fill:#69735f; stroke:none;" d="M232 26C234.785 42.1243 248.197 54.9525 257 68L258 68L241.695 44L232 26z"/>
<path style="fill:#f2c748; stroke:none;" d="M239.333 26.6667L239.667 27.3333L239.333 26.6667z"/>
<path style="fill:#ce4a41; stroke:none;" d="M229 28L229 31L230 31L229 28M232 29L233 30L232 29z"/>
<path style="fill:#f2c748; stroke:none;" d="M240.333 29.6667L240.667 30.3333L240.333 29.6667M221.333 31.6667L221.667 32.3333L221.333 31.6667z"/>
<path style="fill:#ce4a41; stroke:none;" d="M233.333 31.6667L233.667 32.3333L233.333 31.6667z"/>
<path style="fill:#f2c748; stroke:none;" d="M241.333 31.6667L241.667 32.3333L241.333 31.6667z"/>
<path style="fill:#ce4a41; stroke:none;" d="M228.333 32.6667L228.667 33.3333L228.333 32.6667z"/>
<path style="fill:#f2c748; stroke:none;" d="M242.333 33.6667L242.667 34.3333L242.333 33.6667M220 34L220 37L221 37L220 34z"/>
<path style="fill:#ce4a41; stroke:none;" d="M234 34L235 35L234 34M235.333 35.6667L235.667 36.3333L235.333 35.6667z"/>
<path style="fill:#f2c748; stroke:none;" d="M243.333 35.6667L243.667 36.3333L243.333 35.6667z"/>
<path style="fill:#ce4a41; stroke:none;" d="M227 37L228 38L227 37z"/>
<path style="fill:#f2c748; stroke:none;" d="M244.333 37.6667L244.667 38.3333L244.333 37.6667M219.333 38.6667L219.667 39.3333L219.333 38.6667z"/>
<path style="fill:#ce4a41; stroke:none;" d="M236 38L237 39L236 38M226 39L226 42L227 42L226 39M237.333 39.6667L237.667 40.3333L237.333 39.6667z"/>
<path style="fill:#f2c748; stroke:none;" d="M245 39L246 40L245 39z"/>
<path style="fill:#69735f; stroke:none;" d="M225 40L224 46L225 46L225 40z"/>
<path style="fill:#f2c748; stroke:none;" d="M246.333 40.6667L246.667 41.3333L246.333 40.6667M218.333 41.6667L218.667 42.3333L218.333 41.6667M247 42L248 43L247 42z"/>
<path style="fill:#ce4a41; stroke:none;" d="M225.333 43.6667L225.667 44.3333L225.333 43.6667M239 43L240 44L239 43z"/>
<path style="fill:#f2c748; stroke:none;" d="M248 44L249 45L248 44M198.667 45.3333L199.333 45.6667L198.667 45.3333M201 45L202 46L201 45M217.333 45.6667L217.667 46.3333L217.333 45.6667z"/>
<path style="fill:#ce4a41; stroke:none;" d="M240 45L241 46L240 45z"/>
<path style="fill:#f2c748; stroke:none;" d="M249 45L250 46L249 45M197 46L198 47L197 46M203.333 46.6667L203.667 47.3333L203.333 46.6667z"/>
<path style="fill:#ce4a41; stroke:none;" d="M224 46L224 49L225 49L224 46M241 46L242 47L241 46z"/>
<path style="fill:#f2c748; stroke:none;" d="M196 47L196 51L197 51L196 47z"/>
<path style="fill:#69735f; stroke:none;" d="M223 47C217.878 66.7962 233.738 104.362 203 105L204 98L203 98L202 106C204.994 105.998 208.062 106.15 211 105.471C230.005 101.075 222.163 81.3787 222.004 68C221.931 61.878 224.921 52.4163 223 47z"/>
<path style="fill:#f2c748; stroke:none;" d="M250 47L251 48L250 47M216.333 48.6667L216.667 49.3333L216.333 48.6667z"/>
<path style="fill:#ce4a41; stroke:none;" d="M242 48L243 49L242 48z"/>
<path style="fill:#f2c748; stroke:none;" d="M251 48L252 49L251 48M204.333 49.6667L204.667 50.3333L204.333 49.6667z"/>
<path style="fill:#ce4a41; stroke:none;" d="M243 49L244 50L243 49z"/>
<path style="fill:#f2c748; stroke:none;" d="M252 49L253 50L252 49M270 49L271 53L272 53L274 51L270 49z"/>
<path style="fill:#ce4a41; stroke:none;" d="M244 50L245 51L244 50z"/>
<path style="fill:#f2c748; stroke:none;" d="M253 50L254 51L253 50M197.333 51.6667L197.667 52.3333L197.333 51.6667z"/>
<path style="fill:#ce4a41; stroke:none;" d="M223.333 51.6667L223.667 52.3333L223.333 51.6667z"/>
<path style="fill:#f2c748; stroke:none;" d="M274 51L275 52L274 51M205 52L205 55L206 55L205 52z"/>
<path style="fill:#ce4a41; stroke:none;" d="M245 52L246 53L245 52z"/>
<path style="fill:#f2c748; stroke:none;" d="M254 52L255 53L254 52M275 52L276 53L275 52M215 53L215 57L216 57L215 53M255 53L256 54L255 53M276.333 53.6667L276.667 54.3333L276.333 53.6667M198 54L198 67L199 67L198 54z"/>
<path style="fill:#ce4a41; stroke:none;" d="M222.333 54.6667L222.667 55.3333L222.333 54.6667z"/>
<path style="fill:#f2c748; stroke:none;" d="M256.333 54.6667L256.667 55.3333L256.333 54.6667M272.333 55.6667L272.667 56.3333L272.333 55.6667M277 55L278 56L277 55M206 56L206 59L207 59L206 56z"/>
<path style="fill:#ce4a41; stroke:none;" d="M248 56L249 57L248 56z"/>
<path style="fill:#f2c748; stroke:none;" d="M257 56L258 57L257 56M278.333 56.6667L278.667 57.3333L278.333 56.6667M214 57L214 71L215 71L214 57z"/>
<path style="fill:#ce4a41; stroke:none;" d="M249 57L250 58L249 57z"/>
<path style="fill:#f2c748; stroke:none;" d="M258 57L259 58L258 57M273.333 57.6667L273.667 58.3333L273.333 57.6667z"/>
<path style="fill:#ce4a41; stroke:none;" d="M250 58L251 59L250 58z"/>
<path style="fill:#f2c748; stroke:none;" d="M259 58L260 59L259 58M279 58L280 59L279 58z"/>
<path style="fill:#ce4a41; stroke:none;" d="M251.333 59.6667L251.667 60.3333L251.333 59.6667z"/>
<path style="fill:#f2c748; stroke:none;" d="M280 59L281 60L280 59M207 60L207 63L208 63L207 60M260 60L261 61L260 60M281.333 60.6667L281.667 61.3333L281.333 60.6667z"/>
<path style="fill:#ce4a41; stroke:none;" d="M252 61L253 62L252 61z"/>
<path style="fill:#f2c748; stroke:none;" d="M261.333 61.6667L261.667 62.3333L261.333 61.6667M274.333 61.6667L274.667 62.3333L274.333 61.6667z"/>
<path style="fill:#ce4a41; stroke:none;" d="M253 62L254 63L253 62z"/>
<path style="fill:#f2c748; stroke:none;" d="M282.333 62.6667L282.667 63.3333L282.333 62.6667M262.333 63.6667L262.667 64.3333L262.333 63.6667M208 64L208 67L209 67L208 64z"/>
<path style="fill:#ce4a41; stroke:none;" d="M254 64L255 65L254 64z"/>
<path style="fill:#f2c748; stroke:none;" d="M275 64L275 72L276 72L275 64M283 64L284 65L283 64z"/>
<path style="fill:#ce4a41; stroke:none;" d="M255 65L256 66L255 65z"/>
<path style="fill:#f2c748; stroke:none;" d="M263 65L264 66L263 65M284.333 66.6667L284.667 67.3333L284.333 66.6667z"/>
<path style="fill:#ce4a41; stroke:none;" d="M256 67L257 68L256 67z"/>
<path style="fill:#f2c748; stroke:none;" d="M264.333 67.6667L264.667 68.3333L264.333 67.6667M209 68L209 71L210 71L209 68z"/>
<path style="fill:#ce4a41; stroke:none;" d="M257.333 68.6667L257.667 69.3333L257.333 68.6667z"/>
<path style="fill:#f2c748; stroke:none;" d="M285.333 68.6667L285.667 69.3333L285.333 68.6667M197 69L197 72L198 72L197 69z"/>
<path style="fill:#69735f; stroke:none;" d="M258 69L259 73L260 73L258 69z"/>
<path style="fill:#f2c748; stroke:none;" d="M265.333 69.6667L265.667 70.3333L265.333 69.6667M304 70L304 74L305 74L307 71L304 70z"/>
<path style="fill:#ce4a41; stroke:none;" d="M258 71L259 72L258 71z"/>
<path style="fill:#f2c748; stroke:none;" d="M286 71L286 74L287 74L286 71M215 72L215 76L216 76L215 72z"/>
<path style="fill:#ce4a41; stroke:none;" d="M222 72L222 75L223 75L222 72z"/>
<path style="fill:#f2c748; stroke:none;" d="M266 72L266 79L267 79L266 72M274.333 72.6667L274.667 73.3333L274.333 72.6667M196.333 73.6667L196.667 74.3333L196.333 73.6667z"/>
<path style="fill:#ce4a41; stroke:none;" d="M259 73L257 84L258 84L259 73z"/>
<path style="fill:#f2c748; stroke:none;" d="M308.667 73.3333L309.333 73.6667L308.667 73.3333M210 74L210 80L211 80L210 74z"/>
<path style="fill:#69735f; stroke:none;" d="M260 74L260 81L261 81L260 74z"/>
<path style="fill:#f2c748; stroke:none;" d="M273 74L274 75L273 74M305 74L305 77L306 77L305 74M310 74L311 75L310 74z"/>
<path style="fill:#69735f; stroke:none;" d="M202 75L204 97L205 97C205.267 90.7855 208.08 78.9414 202 75z"/>
<path style="fill:#f2c748; stroke:none;" d="M272 75L273 76L272 75M287 75L287 85L288 85L287 75M311 75L312 76L311 75M195.333 76.6667L195.667 77.3333L195.333 76.6667M271 76L272 77L271 76z"/>
<path style="fill:#69735f; stroke:none;" d="M279 76L266 87L266 88L280 78L280 86L281 86L281 76L279 76z"/>
<path style="fill:#f2c748; stroke:none;" d="M312 76L313 77L312 76z"/>
<path style="fill:#ce4a41; stroke:none;" d="M202 77L202 79L204 79L204 77L202 77M223 77L223 80L224 80L223 77z"/>
<path style="fill:#f2c748; stroke:none;" d="M270 77L271 78L270 77M313 77L314 78L313 77M194.333 78.6667L194.667 79.3333L194.333 78.6667z"/>
<path style="fill:#69735f; stroke:none;" d="M201 78L200 82L201 82L201 78z"/>
<path style="fill:#f2c748; stroke:none;" d="M269 78L270 79L269 78z"/>
<path style="fill:#ce4a41; stroke:none;" d="M278 79L281 81L280 78L278 79z"/>
<path style="fill:#f2c748; stroke:none;" d="M306.333 78.6667L306.667 79.3333L306.333 78.6667M314.333 78.6667L314.667 79.3333L314.333 78.6667M216 79L216 83L217 83L216 79M267.667 79.3333L268.333 79.6667L267.667 79.3333z"/>
<path style="fill:#ce4a41; stroke:none;" d="M277 80L278 81L277 80z"/>
<path style="fill:#f2c748; stroke:none;" d="M307.333 80.6667L307.667 81.3333L307.333 80.6667M193 81L194 82L193 81z"/>
<path style="fill:#ce4a41; stroke:none;" d="M201 81L202 82L201 81z"/>
<path style="fill:#f2c748; stroke:none;" d="M211 81L211 93L212 93L211 81z"/>
<path style="fill:#ce4a41; stroke:none;" d="M276 81L277 82L276 81z"/>
<path style="fill:#f2c748; stroke:none;" d="M316 81L317 82L316 81M192.333 82.6667L192.667 83.3333L192.333 82.6667z"/>
<path style="fill:#ce4a41; stroke:none;" d="M200.333 82.6667L200.667 83.3333L200.333 82.6667z"/>
<path style="fill:#69735f; stroke:none;" d="M258 82L258 84L260 82L258 82z"/>
<path style="fill:#ce4a41; stroke:none;" d="M275 82L276 83L275 82z"/>
<path style="fill:#69735f; stroke:none;" d="M199 83L198 86L199 83z"/>
<path style="fill:#ce4a41; stroke:none;" d="M224 83L224 93L225 93L224 83M274 83L275 84L274 83z"/>
<path style="fill:#f2c748; stroke:none;" d="M318 83L319 84L318 83M191.333 84.6667L191.667 85.3333L191.333 84.6667M217 84L217 92L218 92L217 84z"/>
<path style="fill:#69735f; stroke:none;" d="M256 84C256.013 87.1941 255.597 89.2708 259 90L259 89L258 84L256 84z"/>
<path style="fill:#ce4a41; stroke:none;" d="M273 84L274 85L273 84z"/>
<path style="fill:#f2c748; stroke:none;" d="M308 84L309 85L308 84M319 84L320 85L319 84z"/>
<path style="fill:#ce4a41; stroke:none;" d="M199 85L200 86L199 85M279.333 85.6667L279.667 86.3333L279.333 85.6667z"/>
<path style="fill:#f2c748; stroke:none;" d="M320.333 85.6667L320.667 86.3333L320.333 85.6667M190 86L191 87L190 86z"/>
<path style="fill:#ce4a41; stroke:none;" d="M198 86L197 89L198 86M270 86L271 87L270 86z"/>
<path style="fill:#f2c748; stroke:none;" d="M286.333 86.6667L286.667 87.3333L286.333 86.6667M309 86L309 90L310 90L309 86z"/>
<path style="fill:#69735f; stroke:none;" d="M197 87L198 88L197 87z"/>
<path style="fill:#ce4a41; stroke:none;" d="M268 87L269 88L268 87z"/>
<path style="fill:#69735f; stroke:none;" d="M279 87L275 100L276 100L279 87z"/>
<path style="fill:#f2c748; stroke:none;" d="M321 87L322 88L321 87M189 88L190 89L189 88z"/>
<path style="fill:#69735f; stroke:none;" d="M196 88L176 115L177 115C180.617 106.619 197.208 97.0051 196 88M260 89L260 90L265 89L260 89z"/>
<path style="fill:#ce4a41; stroke:none;" d="M265.667 88.3333L266.333 88.6667L265.667 88.3333M278 88L279 89L278 88z"/>
<path style="fill:#f2c748; stroke:none;" d="M322.333 88.6667L322.667 89.3333L322.333 88.6667M188 89L189 90L188 89z"/>
<path style="fill:#ce4a41; stroke:none;" d="M263.667 89.3333L264.333 89.6667L263.667 89.3333z"/>
<path style="fill:#f2c748; stroke:none;" d="M187 90L188 91L187 90z"/>
<path style="fill:#ce4a41; stroke:none;" d="M196 90L197 91L196 90M258 90L258 91L261 91L258 90M277 90L278 91L277 90z"/>
<path style="fill:#f2c748; stroke:none;" d="M285 90L286 91L285 90M323 90L324 91L323 90z"/>
<path style="fill:#69735f; stroke:none;" d="M240 91L240 92L244 92L240 91z"/>
<path style="fill:#ce4a41; stroke:none;" d="M276 91L277 92L276 91z"/>
<path style="fill:#f2c748; stroke:none;" d="M284.333 91.6667L284.667 92.3333L284.333 91.6667M324.333 91.6667L324.667 92.3333L324.333 91.6667M216.333 92.6667L216.667 93.3333L216.333 92.6667z"/>
<path style="fill:#ce4a41; stroke:none;" d="M233 92L234 93L233 92z"/>
<path style="fill:#69735f; stroke:none;" d="M218 109L219 109C224.024 101.644 229.739 94.4454 239 93C230.294 89.6374 221.007 102.163 218 109M245 92L245 93L251 94L245 92z"/>
<path style="fill:#ce4a41; stroke:none;" d="M275.333 92.6667L275.667 93.3333L275.333 92.6667z"/>
<path style="fill:#f2c748; stroke:none;" d="M291 92L291 93L294 93L291 92M185 93L186 94L185 93z"/>
<path style="fill:#ce4a41; stroke:none;" d="M194 93L195 94L194 93M231 93L232 94L231 93z"/>
<path style="fill:#f2c748; stroke:none;" d="M283.333 93.6667L283.667 94.3333L283.333 93.6667M290 93L291 94L290 93M310 93L310 99L311 99L310 93z"/>
<path style="fill:#69735f; stroke:none;" d="M316 93L316 102L317 102L317 95L320 96L316 93z"/>
<path style="fill:#f2c748; stroke:none;" d="M325 93L326 94L325 93M184 94L185 95L184 94z"/>
<path style="fill:#ce4a41; stroke:none;" d="M193 94L194 95L193 94z"/>
<path style="fill:#f2c748; stroke:none;" d="M210 94L210 98L211 98L210 94z"/>
<path style="fill:#69735f; stroke:none;" d="M251 94L254 96L251 94z"/>
<path style="fill:#f2c748; stroke:none;" d="M294 94L295 95L294 94M183 95L184 96L183 95z"/>
<path style="fill:#ce4a41; stroke:none;" d="M192.333 95.6667L192.667 96.3333L192.333 95.6667M203 95L203 98L204 98L203 95z"/>
<path style="fill:#f2c748; stroke:none;" d="M215 95L216 96L215 95z"/>
<path style="fill:#ce4a41; stroke:none;" d="M223 95L224 96L223 95M228 95L229 96L228 95z"/>
<path style="fill:#f2c748; stroke:none;" d="M282 95L283 96L282 95M289 95L290 96L289 95M295.333 95.6667L295.667 96.3333L295.333 95.6667z"/>
<path style="fill:#ce4a41; stroke:none;" d="M317 95L317 101L318 101L320 98L319 95L317 95z"/>
<path style="fill:#f2c748; stroke:none;" d="M326 95L327 96L326 95M182 96L183 97L182 96M213.667 96.3333L214.333 96.6667L213.667 96.3333z"/>
<path style="fill:#ce4a41; stroke:none;" d="M227 96L228 97L227 96z"/>
<path style="fill:#69735f; stroke:none;" d="M254 96L255 97L254 96z"/>
<path style="fill:#ce4a41; stroke:none;" d="M273.333 96.6667L273.667 97.3333L273.333 96.6667z"/>
<path style="fill:#f2c748; stroke:none;" d="M281.333 96.6667L281.667 97.3333L281.333 96.6667M288 96L289 97L288 96M327.333 96.6667L327.667 97.3333L327.333 96.6667M181 97L182 98L181 97z"/>
<path style="fill:#ce4a41; stroke:none;" d="M191 97L192 98L191 97z"/>
<path style="fill:#f2c748; stroke:none;" d="M212 97L213 98L212 97z"/>
<path style="fill:#ce4a41; stroke:none;" d="M222 97L223 98L222 97M226 97L227 98L226 97z"/>
<path style="fill:#69735f; stroke:none;" d="M223 138L224 138C223.704 123.678 224.864 95.6949 247 100C241.955 93.3724 232.437 99.4252 228.185 104.04C219.551 113.411 219.744 126.413 223 138M255 97L256 98L255 97M320 97L322 100L320 97z"/>
<path style="fill:#ce4a41; stroke:none;" d="M190 98L191 99L190 98M221 98L222 99L221 98M225 98L226 99L225 98z"/>
<path style="fill:#69735f; stroke:none;" d="M256 98L261 106L262 106L256 98z"/>
<path style="fill:#f2c748; stroke:none;" d="M287 98L288 99L287 98M296.333 98.6667L296.667 99.3333L296.333 98.6667M178.667 99.3333L179.333 99.6667L178.667 99.3333z"/>
<path style="fill:#ce4a41; stroke:none;" d="M189 99L190 100L189 99M202.333 99.6667L202.667 100.333L202.333 99.6667M224 99L225 100L224 99M274 99L275 100L274 99z"/>
<path style="fill:#f2c748; stroke:none;" d="M282 99L283 100L282 99M286 99L287 100L286 99z"/>
<path style="fill:#ce4a41; stroke:none;" d="M320 99L321 100L320 99z"/>
<path style="fill:#f2c748; stroke:none;" d="M328.333 99.6667L328.667 100.333L328.333 99.6667M177 100L178 101L177 100z"/>
<path style="fill:#ce4a41; stroke:none;" d="M188 100L189 101L188 100M220 100L221 101L220 100M223 100L224 101L223 100M275.333 100.667L275.667 101.333L275.333 100.667z"/>
<path style="fill:#f2c748; stroke:none;" d="M283 100L283 101L286 101L283 100M297 100L297 109L298 109L297 100z"/>
<path style="fill:#ce4a41; stroke:none;" d="M321.333 100.667L321.667 101.333L321.333 100.667z"/>
<path style="fill:#f2c748; stroke:none;" d="M176 101L177 102L176 101z"/>
<path style="fill:#ce4a41; stroke:none;" d="M187 101L188 102L187 101M219 101L220 102L219 101M222 101L223 102L222 101M260 101L261 102L260 101z"/>
<path style="fill:#69735f; stroke:none;" d="M276 101C278.736 107.734 283.668 108.678 290 106C287.729 111.845 283.349 115.018 278 118L278 120L295 121L295 120L280 120C284.546 115.022 291.881 111.699 291 104C283.982 107.092 281.691 105.754 276 101M322 101L325 115L326 115L322 101z"/>
<path style="fill:#f2c748; stroke:none;" d="M329.333 101.667L329.667 102.333L329.333 101.667M175.333 102.667L175.667 103.333L175.333 102.667z"/>
<path style="fill:#ce4a41; stroke:none;" d="M186 102L187 103L186 102M201 102L201 106L202 106L201 102M218 102L219 103L218 102M221 102L222 103L221 102z"/>
<path style="fill:#f2c748; stroke:none;" d="M309.333 102.667L309.667 103.333L309.333 102.667z"/>
<path style="fill:#ce4a41; stroke:none;" d="M316 102L316 106L317 106L316 102M185 103L186 104L185 103M216 103L217 104L216 103M261 103L262 104L261 103M276 103L277 104L276 103z"/>
<path style="fill:#f2c748; stroke:none;" d="M174 104L175 105L174 104z"/>
<path style="fill:#ce4a41; stroke:none;" d="M183.667 104.333L184.333 104.667L183.667 104.333M214 104L215 105L214 104z"/>
<path style="fill:#69735f; stroke:none;" d="M238 105L238 106L246 105L238 105z"/>
<path style="fill:#ce4a41; stroke:none;" d="M277 104L278 105L277 104z"/>
<path style="fill:#f2c748; stroke:none;" d="M308.333 104.667L308.667 105.333L308.333 104.667z"/>
<path style="fill:#69735f; stroke:none;" d="M315 104L307 116C310.794 113.305 316.176 109.117 315 104z"/>
<path style="fill:#ce4a41; stroke:none;" d="M322 104L323 105L322 104z"/>
<path style="fill:#f2c748; stroke:none;" d="M330 104L330 107L331 107L330 104M173 105L174 106L173 105z"/>
<path style="fill:#ce4a41; stroke:none;" d="M182 105L183 106L182 105M211.667 105.333L212.333 105.667L211.667 105.333M219 105L220 106L219 105z"/>
<path style="fill:#69735f; stroke:none;" d="M246.667 105.333L247.333 105.667L246.667 105.333z"/>
<path style="fill:#f2c748; stroke:none;" d="M172.333 106.667L172.667 107.333L172.333 106.667z"/>
<path style="fill:#ce4a41; stroke:none;" d="M181 106L182 107L181 106M205.667 106.333L206.333 106.667L205.667 106.333z"/>
<path style="fill:#69735f; stroke:none;" d="M235 108L238 106L235 108M248 106L249 107L248 106M262 106L263 111L264 111L262 106z"/>
<path style="fill:#ce4a41; stroke:none;" d="M279 106L280 107L279 106M288.667 106.333L289.333 106.667L288.667 106.333z"/>
<path style="fill:#f2c748; stroke:none;" d="M307 106L308 107L307 106z"/>
<path style="fill:#ce4a41; stroke:none;" d="M323 106L323 109L324 109L323 106z"/>
<path style="fill:#f2c748; stroke:none;" d="M142 107L142 108L145 108L142 107z"/>
<path style="fill:#ce4a41; stroke:none;" d="M218 107L219 108L218 107z"/>
<path style="fill:#69735f; stroke:none;" d="M249 107L250 108L249 107z"/>
<path style="fill:#ce4a41; stroke:none;" d="M280 107L281 108L280 107M287 107L288 108L287 107M315 107L316 108L315 107z"/>
<path style="fill:#f2c748; stroke:none;" d="M145 108L146 109L145 108z"/>
<path style="fill:#ce4a41; stroke:none;" d="M180 108L181 109L180 108M217.333 108.667L217.667 109.333L217.333 108.667z"/>
<path style="fill:#69735f; stroke:none;" d="M234 108L235 109L234 108M250.333 108.667L250.667 109.333L250.333 108.667z"/>
<path style="fill:#ce4a41; stroke:none;" d="M282 108L282 109L286 109L282 108M289 108L290 109L289 108M314 108L315 109L314 108z"/>
<path style="fill:#f2c748; stroke:none;" d="M331 108L331 111L332 111L331 108M146 109L147 110L146 109M171.333 109.667L171.667 110.333L171.333 109.667z"/>
<path style="fill:#ce4a41; stroke:none;" d="M179 109L180 110L179 109z"/>
<path style="fill:#69735f; stroke:none;" d="M233 109L232 112L233 109z"/>
<path style="fill:#f2c748; stroke:none;" d="M296.333 109.667L296.667 110.333L296.333 109.667M304 109L305 110L304 109M142.333 110.667L142.667 111.333L142.333 110.667M147 110L148 111L147 110z"/>
<path style="fill:#69735f; stroke:none;" d="M217 110L216 116L217 116L217 110M251 110L251 113L252 113L251 110z"/>
<path style="fill:#f2c748; stroke:none;" d="M303 110L304 111L303 110z"/>
<path style="fill:#ce4a41; stroke:none;" d="M313 110L314 111L313 110z"/>
<path style="fill:#f2c748; stroke:none;" d="M148 111L149 112L148 111M170.333 111.667L170.667 112.333L170.333 111.667z"/>
<path style="fill:#ce4a41; stroke:none;" d="M178 111L179 112L178 111M216 111L217 112L216 111z"/>
<path style="fill:#69735f; stroke:none;" d="M264 111L263 133L264 133C266.401 126.588 267.667 117.121 264 111z"/>
<path style="fill:#ce4a41; stroke:none;" d="M287 111L288 112L287 111z"/>
<path style="fill:#f2c748; stroke:none;" d="M301.667 111.333L302.333 111.667L301.667 111.333z"/>
<path style="fill:#ce4a41; stroke:none;" d="M312 111L313 112L312 111M324.333 111.667L324.667 112.333L324.333 111.667z"/>
<path style="fill:#f2c748; stroke:none;" d="M143.333 112.667L143.667 113.333L143.333 112.667z"/>
<path style="fill:#69735f; stroke:none;" d="M231.333 112.667L231.667 113.333L231.333 112.667z"/>
<path style="fill:#ce4a41; stroke:none;" d="M265.333 112.667L265.667 113.333L265.333 112.667M286 112L287 113L286 112z"/>
<path style="fill:#f2c748; stroke:none;" d="M295 112L297 114L297 112L295 112M298.667 112.333L299.333 112.667L298.667 112.333z"/>
<path style="fill:#ce4a41; stroke:none;" d="M311 112L312 113L311 112z"/>
<path style="fill:#f2c748; stroke:none;" d="M150.667 113.333L151.333 113.667L150.667 113.333z"/>
<path style="fill:#ce4a41; stroke:none;" d="M177.333 113.667L177.667 114.333L177.333 113.667M215 113L215 117L216 117L215 113z"/>
<path style="fill:#69735f; stroke:none;" d="M252 113L254 131L252 113z"/>
<path style="fill:#ce4a41; stroke:none;" d="M285 113L286 114L285 113M310 113L311 114L310 113z"/>
<path style="fill:#f2c748; stroke:none;" d="M152 114L153 115L152 114M169 114L169 117L170 117L169 114z"/>
<path style="fill:#69735f; stroke:none;" d="M230 114L230 117L231 117L230 114z"/>
<path style="fill:#ce4a41; stroke:none;" d="M283 114L284 115L283 114M309 114L310 115L309 114z"/>
<path style="fill:#f2c748; stroke:none;" d="M153 115L154 116L153 115z"/>
<path style="fill:#ce4a41; stroke:none;" d="M176 115L176 118L177 118L176 115z"/>
<path style="fill:#69735f; stroke:none;" d="M258 115L258 125L260 125L260 115L258 115z"/>
<path style="fill:#ce4a41; stroke:none;" d="M282 115L283 116L282 115M308 115L309 116L308 115M325 115L325 120L326 120L325 115z"/>
<path style="fill:#f2c748; stroke:none;" d="M144 116L144 119L145 119L144 116M154 116L155 117L154 116z"/>
<path style="fill:#69735f; stroke:none;" d="M175 116L174 124L175 124L175 116z"/>
<path style="fill:#ce4a41; stroke:none;" d="M266 116L266 126L267 126L266 116M280 116L281 117L280 116z"/>
<path style="fill:#69735f; stroke:none;" d="M305 116L296 119L296 120L306 117L305 116z"/>
<path style="fill:#ce4a41; stroke:none;" d="M306.667 116.333L307.333 116.667L306.667 116.333z"/>
<path style="fill:#f2c748; stroke:none;" d="M332.333 116.667L332.667 117.333L332.333 116.667M155 117L156 118L155 117z"/>
<path style="fill:#69735f; stroke:none;" d="M215 117L215 131L216 131L215 117M229 117L229 139L230 139L229 117z"/>
<path style="fill:#ce4a41; stroke:none;" d="M278.667 117.333L279.333 117.667L278.667 117.333M305 117L306 118L305 117z"/>
<path style="fill:#f2c748; stroke:none;" d="M156.333 118.667L156.667 119.333L156.333 118.667M168 118L168 121L169 121L168 118z"/>
<path style="fill:#ce4a41; stroke:none;" d="M277.333 118.667L277.667 119.333L277.333 118.667M303 118L304 119L303 118M175 119L175 123L176 123L175 119M301 119L302 120L301 119z"/>
<path style="fill:#f2c748; stroke:none;" d="M145 120L145 125L146 125L145 120z"/>
<path style="fill:#ce4a41; stroke:none;" d="M278.667 120.333L279.333 120.667L278.667 120.333M295 120L295 121L299 121L295 120z"/>
<path style="fill:#69735f; stroke:none;" d="M325 120L308 150L309 150C314.621 142.621 329.163 130.692 325 120z"/>
<path style="fill:#f2c748; stroke:none;" d="M158 121L159 122L158 121z"/>
<path style="fill:#ce4a41; stroke:none;" d="M280 121L280 122L294 122L280 121M324.333 121.667L324.667 122.333L324.333 121.667z"/>
<path style="fill:#f2c748; stroke:none;" d="M348 121L348 122L351 122L348 121z"/>
<path style="fill:#ce4a41; stroke:none;" d="M252 122L252 126L253 126L252 122z"/>
<path style="fill:#f2c748; stroke:none;" d="M347 122L347 125L348 125L347 122M352 122L353 123L352 122M160 123L161 124L160 123M167 123L166 131L167 123M331 123L331 126L332 126L331 123M353 123L354 124L353 123z"/>
<path style="fill:#69735f; stroke:none;" d="M152 124L152 137L153 137L153 126L169 148C165.311 139.139 160.34 129.238 152 124z"/>
<path style="fill:#f2c748; stroke:none;" d="M161 124L162 125L161 124z"/>
<path style="fill:#ce4a41; stroke:none;" d="M174 124L174 133L175 133L174 124z"/>
<path style="fill:#f2c748; stroke:none;" d="M354 124L355 125L354 124M162 125L163 126L162 125z"/>
<path style="fill:#ce4a41; stroke:none;" d="M323 125L323 128L324 128L323 125z"/>
<path style="fill:#f2c748; stroke:none;" d="M355 125L356 126L355 125z"/>
<path style="fill:#ce4a41; stroke:none;" d="M153 126L153 136L154 136L153 126z"/>
<path style="fill:#f2c748; stroke:none;" d="M163 126L164 127L163 126z"/>
<path style="fill:#69735f; stroke:none;" d="M173 126C173 132.237 174.878 141.881 171 147L171 148C175.909 146.948 175.221 129.854 173 126z"/>
<path style="fill:#f2c748; stroke:none;" d="M357 126L358 127L357 126M330 127L330 130L331 130L330 127M358 127L359 128L358 127z"/>
<path style="fill:#ce4a41; stroke:none;" d="M155 128L156 129L155 128z"/>
<path style="fill:#f2c748; stroke:none;" d="M164 128L165 129L164 128z"/>
<path style="fill:#ce4a41; stroke:none;" d="M265.333 128.667L265.667 129.333L265.333 128.667z"/>
<path style="fill:#f2c748; stroke:none;" d="M359 128L360 129L359 128M165 129L166 130L165 129z"/>
<path style="fill:#ce4a41; stroke:none;" d="M322 129L323 130L322 129M157 130L158 131L157 130z"/>
<path style="fill:#f2c748; stroke:none;" d="M360 130L361 131L360 130z"/>
<path style="fill:#69735f; stroke:none;" d="M216 131L217 140L218 140L216 131M254.667 131.333L255.333 131.667L254.667 131.333z"/>
<path style="fill:#ce4a41; stroke:none;" d="M321 131L322 132L321 131z"/>
<path style="fill:#f2c748; stroke:none;" d="M329.333 131.667L329.667 132.333L329.333 131.667M361 131L362 132L361 131z"/>
<path style="fill:#ce4a41; stroke:none;" d="M158 132L159 133L158 132z"/>
<path style="fill:#69735f; stroke:none;" d="M256 132L256 133L263 134L256 132z"/>
<path style="fill:#f2c748; stroke:none;" d="M362 132L363 133L362 132z"/>
<path style="fill:#ce4a41; stroke:none;" d="M159 133L160 134L159 133M320 133L321 134L320 133z"/>
<path style="fill:#f2c748; stroke:none;" d="M328 133L329 134L328 133M363.333 133.667L363.667 134.333L363.333 133.667z"/>
<path style="fill:#ce4a41; stroke:none;" d="M160 134L161 135L160 134z"/>
<path style="fill:#f2c748; stroke:none;" d="M347 134L347 137L348 137L347 134z"/>
<path style="fill:#69735f; stroke:none;" d="M354 134L354 135L359 140L360 140L354 134z"/>
<path style="fill:#ce4a41; stroke:none;" d="M319 135L320 136L319 135z"/>
<path style="fill:#f2c748; stroke:none;" d="M327.333 135.667L327.667 136.333L327.333 135.667z"/>
<path style="fill:#ce4a41; stroke:none;" d="M354 135L354 138L355 138L356 135L354 135z"/>
<path style="fill:#f2c748; stroke:none;" d="M364.333 135.667L364.667 136.333L364.333 135.667z"/>
<path style="fill:#ce4a41; stroke:none;" d="M161 136L162 137L161 136M318 136L319 137L318 136z"/>
<path style="fill:#69735f; stroke:none;" d="M353 136L346 154L347 154C350.122 149.261 355.193 141.793 353 136z"/>
<path style="fill:#ce4a41; stroke:none;" d="M356 136L357 137L356 136z"/>
<path style="fill:#f2c748; stroke:none;" d="M145 137L145 141L146 141L145 137z"/>
<path style="fill:#ce4a41; stroke:none;" d="M152 137L152 142L153 142L152 137M317 137L318 138L317 137z"/>
<path style="fill:#f2c748; stroke:none;" d="M326 137L327 138L326 137z"/>
<path style="fill:#ce4a41; stroke:none;" d="M357 137L358 138L357 137z"/>
<path style="fill:#f2c748; stroke:none;" d="M365 137L366 138L365 137z"/>
<path style="fill:#ce4a41; stroke:none;" d="M162 138L163 139L162 138z"/>
<path style="fill:#f2c748; stroke:none;" d="M325.333 138.667L325.667 139.333L325.333 138.667M346.333 138.667L346.667 139.333L346.333 138.667z"/>
<path style="fill:#69735f; stroke:none;" d="M151 139L150 147L151 147L151 139z"/>
<path style="fill:#ce4a41; stroke:none;" d="M163 139L164 140L163 139z"/>
<path style="fill:#69735f; stroke:none;" d="M230 139L230 142L231 142L230 139z"/>
<path style="fill:#ce4a41; stroke:none;" d="M316 139L317 140L316 139M358 139L359 140L358 139z"/>
<path style="fill:#f2c748; stroke:none;" d="M366.333 139.667L366.667 140.333L366.333 139.667z"/>
<path style="fill:#69735f; stroke:none;" d="M218 140L219 145L220 145L218 140z"/>
<path style="fill:#ce4a41; stroke:none;" d="M315 140L316 141L315 140z"/>
<path style="fill:#f2c748; stroke:none;" d="M324 140L325 141L324 140z"/>
<path style="fill:#ce4a41; stroke:none;" d="M359.333 140.667L359.667 141.333L359.333 140.667M164 141L165 142L164 141M314 141L315 142L314 141z"/>
<path style="fill:#f2c748; stroke:none;" d="M323 141L324 142L323 141M345.333 141.667L345.667 142.333L345.333 141.667z"/>
<path style="fill:#ce4a41; stroke:none;" d="M353 141L354 142L353 141z"/>
<path style="fill:#69735f; stroke:none;" d="M360 141L362 159L363 159C363 152.959 364.032 145.926 360 141z"/>
<path style="fill:#f2c748; stroke:none;" d="M367 141L368 142L367 141M144 142L144 145L145 145L144 142z"/>
<path style="fill:#69735f; stroke:none;" d="M231.333 142.667L231.667 143.333L231.333 142.667z"/>
<path style="fill:#ce4a41; stroke:none;" d="M313 142L314 143L313 142z"/>
<path style="fill:#f2c748; stroke:none;" d="M322 142L323 143L322 142z"/>
<path style="fill:#ce4a41; stroke:none;" d="M352.333 142.667L352.667 143.333L352.333 142.667M165 143L166 144L165 143M312 143L313 144L312 143z"/>
<path style="fill:#f2c748; stroke:none;" d="M344.333 143.667L344.667 144.333L344.333 143.667z"/>
<path style="fill:#ce4a41; stroke:none;" d="M360.333 143.667L360.667 144.333L360.333 143.667M174.333 144.667L174.667 145.333L174.333 144.667z"/>
<path style="fill:#69735f; stroke:none;" d="M232 144L233 148L234 148L232 144z"/>
<path style="fill:#ce4a41; stroke:none;" d="M311 144L312 145L311 144z"/>
<path style="fill:#f2c748; stroke:none;" d="M321 144L322 145L321 144M368 144L368 148L369 148L368 144z"/>
<path style="fill:#ce4a41; stroke:none;" d="M151 145L152 146L151 145z"/>
<path style="fill:#69735f; stroke:none;" d="M220 145L221 149L222 149L220 145z"/>
<path style="fill:#ce4a41; stroke:none;" d="M310 145L311 146L310 145z"/>
<path style="fill:#f2c748; stroke:none;" d="M320 145L321 146L320 145M143.333 146.667L143.667 147.333L143.333 146.667z"/>
<path style="fill:#ce4a41; stroke:none;" d="M166 146L167 147L166 146M309 146L310 147L309 146z"/>
<path style="fill:#f2c748; stroke:none;" d="M319 146L320 147L319 146M343 146L344 147L343 146z"/>
<path style="fill:#ce4a41; stroke:none;" d="M351 146L352 147L351 146M361.333 146.667L361.667 147.333L361.333 146.667M150 147L150 150L151 150L150 147M308 147L309 148L308 147z"/>
<path style="fill:#f2c748; stroke:none;" d="M318 147L319 148L318 147M342.333 147.667L342.667 148.333L342.333 147.667z"/>
<path style="fill:#69735f; stroke:none;" d="M149 148L148 152L149 152L149 148M169 148L170 149L169 148M234 148L236 151L234 148z"/>
<path style="fill:#f2c748; stroke:none;" d="M317 148L318 149L317 148z"/>
<path style="fill:#ce4a41; stroke:none;" d="M350 148L351 149L350 148z"/>
<path style="fill:#f2c748; stroke:none;" d="M142 149L143 150L142 149z"/>
<path style="fill:#69735f; stroke:none;" d="M222 149L223 154L213 155L213 156L224 155L222 149z"/>
<path style="fill:#ce4a41; stroke:none;" d="M307.333 149.667L307.667 150.333L307.333 149.667z"/>
<path style="fill:#f2c748; stroke:none;" d="M316 149L317 150L316 149M341.333 149.667L341.667 150.333L341.333 149.667M369 149L369 157L370 157L369 149M315 150L316 151L315 150z"/>
<path style="fill:#ce4a41; stroke:none;" d="M349 150L350 151L349 150z"/>
<path style="fill:#f2c748; stroke:none;" d="M141.333 151.667L141.667 152.333L141.333 151.667z"/>
<path style="fill:#ce4a41; stroke:none;" d="M149 151L150 152L149 151z"/>
<path style="fill:#69735f; stroke:none;" d="M236 151L237 152L236 151M307 151L307 162L308 162L307 151z"/>
<path style="fill:#f2c748; stroke:none;" d="M314.333 151.667L314.667 152.333L314.333 151.667M340 151L341 152L340 151z"/>
<path style="fill:#ce4a41; stroke:none;" d="M348 151L349 152L348 151M148 152L148 155L149 155L148 152z"/>
<path style="fill:#69735f; stroke:none;" d="M237 152L238 153L237 152z"/>
<path style="fill:#ce4a41; stroke:none;" d="M306.333 152.667L306.667 153.333L306.333 152.667z"/>
<path style="fill:#f2c748; stroke:none;" d="M339.333 152.667L339.667 153.333L339.333 152.667M140 153L141 154L140 153z"/>
<path style="fill:#69735f; stroke:none;" d="M147 153L140 169L141 169L147 153M238 153L238 154L241 154L238 153M243 153L243 154L249 154L243 153z"/>
<path style="fill:#ce4a41; stroke:none;" d="M347 153L348 154L347 153z"/>
<path style="fill:#69735f; stroke:none;" d="M256 154L256 155L262 156L256 154z"/>
<path style="fill:#f2c748; stroke:none;" d="M313 154L313 160L314 160L313 154M338 154L339 155L338 154z"/>
<path style="fill:#ce4a41; stroke:none;" d="M346 154L345 157L346 154z"/>
<path style="fill:#f2c748; stroke:none;" d="M139.333 155.667L139.667 156.333L139.333 155.667M337 155L338 156L337 155z"/>
<path style="fill:#69735f; stroke:none;" d="M345 155L346 156L345 155z"/>
<path style="fill:#ce4a41; stroke:none;" d="M147 156L148 157L147 156z"/>
<path style="fill:#69735f; stroke:none;" d="M210 159L213 156L210 159M262 156C262.669 162.259 261.306 167.133 269 168L269 167L263 165L262 156z"/>
<path style="fill:#f2c748; stroke:none;" d="M336 156L337 157L336 156z"/>
<path style="fill:#69735f; stroke:none;" d="M344 156L333 167L333 168C337.391 165.797 344.285 161.479 344 156z"/>
<path style="fill:#f2c748; stroke:none;" d="M138 157L139 158L138 157z"/>
<path style="fill:#ce4a41; stroke:none;" d="M146 157L147 158L146 157z"/>
<path style="fill:#f2c748; stroke:none;" d="M335 157L336 158L335 157z"/>
<path style="fill:#ce4a41; stroke:none;" d="M361 157L361 160L362 160L361 157z"/>
<path style="fill:#f2c748; stroke:none;" d="M368 157L368 161L369 161L368 157M137.333 158.667L137.667 159.333L137.333 158.667M334 158L335 159L334 158z"/>
<path style="fill:#ce4a41; stroke:none;" d="M344 158L345 159L344 158M145 159L146 160L145 159z"/>
<path style="fill:#69735f; stroke:none;" d="M209 159L209 165L210 165L209 159M215 164C220.013 165.086 225.901 164.094 231 163.424C234.944 162.906 239.034 162.792 243 163.17C244.28 163.292 261.703 164.511 256.338 160.008C254.195 158.21 249.584 158.973 247 159.004C239.535 159.092 218.768 157.167 215 164z"/>
<path style="fill:#f2c748; stroke:none;" d="M333 159L334 160L333 159z"/>
<path style="fill:#ce4a41; stroke:none;" d="M343 159L344 160L343 159z"/>
<path style="fill:#f2c748; stroke:none;" d="M136.333 160.667L136.667 161.333L136.333 160.667z"/>
<path style="fill:#ce4a41; stroke:none;" d="M306.333 160.667L306.667 161.333L306.333 160.667z"/>
<path style="fill:#f2c748; stroke:none;" d="M314 160L315 161L314 160M332 160L333 161L332 160z"/>
<path style="fill:#ce4a41; stroke:none;" d="M342 160L343 161L342 160z"/>
<path style="fill:#69735f; stroke:none;" d="M361 160C354.938 176.433 332.849 188.977 331 206L332 206C334.356 194.161 348.305 183.817 355.115 174C357.801 170.128 362.337 164.888 361 160z"/>
<path style="fill:#f2c748; stroke:none;" d="M109 161L109 164L110 164L111 161L109 161z"/>
<path style="fill:#ce4a41; stroke:none;" d="M144 161L145 162L144 161z"/>
<path style="fill:#f2c748; stroke:none;" d="M315 161L316 162L315 161M330.667 161.333L331.333 161.667L330.667 161.333z"/>
<path style="fill:#ce4a41; stroke:none;" d="M360 161L361 162L360 161z"/>
<path style="fill:#f2c748; stroke:none;" d="M112 162L113 163L112 162M135.333 162.667L135.667 163.333L135.333 162.667z"/>
<path style="fill:#ce4a41; stroke:none;" d="M143 162L144 163L143 162M307 162L315 170L315 169L307 162z"/>
<path style="fill:#f2c748; stroke:none;" d="M316.667 162.333L317.333 162.667L316.667 162.333M329 162L330 163L329 162z"/>
<path style="fill:#ce4a41; stroke:none;" d="M340 162L341 163L340 162z"/>
<path style="fill:#f2c748; stroke:none;" d="M113 163L114 164L113 163z"/>
<path style="fill:#69735f; stroke:none;" d="M308 163L309 164L308 163z"/>
<path style="fill:#f2c748; stroke:none;" d="M318 163L318 164L321 164L318 163M326.667 163.333L327.333 163.667L326.667 163.333z"/>
<path style="fill:#ce4a41; stroke:none;" d="M359.333 163.667L359.667 164.333L359.333 163.667z"/>
<path style="fill:#f2c748; stroke:none;" d="M367.333 163.667L367.667 164.333L367.333 163.667M110.333 164.667L110.667 165.333L110.333 164.667M115 164L116 165L115 164z"/>
<path style="fill:#ce4a41; stroke:none;" d="M142.333 164.667L142.667 165.333L142.333 164.667z"/>
<path style="fill:#69735f; stroke:none;" d="M309 164L310 165L309 164z"/>
<path style="fill:#ce4a41; stroke:none;" d="M338 164L339 165L338 164z"/>
<path style="fill:#342b28; stroke:none;" d="M113 165L114 166L113 165z"/>
<path style="fill:#f2c748; stroke:none;" d="M116 165L117 166L116 165M134 165L135 166L134 165z"/>
<path style="fill:#69735f; stroke:none;" d="M310 165L311 166L310 165z"/>
<path style="fill:#ce4a41; stroke:none;" d="M337 165L338 166L337 165M358 165L359 166L358 165z"/>
<path style="fill:#f2c748; stroke:none;" d="M366.333 165.667L366.667 166.333L366.333 165.667M111 166L112 167L111 166M118 166L119 167L118 166z"/>
<path style="fill:#69735f; stroke:none;" d="M311 166L312 167L311 166z"/>
<path style="fill:#ce4a41; stroke:none;" d="M336 166L337 167L336 166z"/>
<path style="fill:#f2c748; stroke:none;" d="M112 167L113 168L112 167M119.667 167.333L120.333 167.667L119.667 167.333z"/>
<path style="fill:#ce4a41; stroke:none;" d="M141 167L142 168L141 167z"/>
<path style="fill:#69735f; stroke:none;" d="M209 167L210 168L209 167M312.667 167.333L313.333 167.667L312.667 167.333z"/>
<path style="fill:#ce4a41; stroke:none;" d="M334 167L335 168L334 167M357 167L358 168L357 167z"/>
<path style="fill:#f2c748; stroke:none;" d="M365.333 167.667L365.667 168.333L365.333 167.667M113 168L114 169L113 168M121 168L122 169L121 168M133.333 168.667L133.667 169.333L133.333 168.667z"/>
<path style="fill:#69735f; stroke:none;" d="M207.667 168.333L208.333 168.667L207.667 168.333M269 168L269 169L273 170L273 169L269 168M314 168L314 169L318 170L318 169L314 168M328 169L328 170L332 169L328 169z"/>
<path style="fill:#ce4a41; stroke:none;" d="M332.667 168.333L333.333 168.667L332.667 168.333z"/>
<path style="fill:#f2c748; stroke:none;" d="M122.667 169.333L123.333 169.667L122.667 169.333z"/>
<path style="fill:#ce4a41; stroke:none;" d="M140 169L140 172L141 172L140 169z"/>
<path style="fill:#69735f; stroke:none;" d="M205.667 169.333L206.333 169.667L205.667 169.333z"/>
<path style="fill:#ce4a41; stroke:none;" d="M231 169.424C222.548 170.535 214.781 171.48 207 175.37C158.063 199.839 175.958 273.887 183.537 316C185.463 326.699 187.274 337.401 189.765 348C192.904 361.352 195.755 374.732 199.265 388C204.638 408.309 210.324 428.746 218.862 448C220.88 452.551 225.705 465.041 232.039 464.258C238.642 463.441 244.806 453.961 248.279 449C260.158 432.031 268.201 411.67 274.352 392C285.777 355.461 293.185 317.883 298.289 280C300.86 260.908 305.763 240.341 303.829 221C300.187 184.567 265.35 164.912 231 169.424M331 169L332 170L331 169M356 169L357 170L356 169z"/>
<path style="fill:#f2c748; stroke:none;" d="M364.333 169.667L364.667 170.333L364.333 169.667M114 170L115 171L114 170M124 170L125 171L124 170z"/>
<path style="fill:#69735f; stroke:none;" d="M139 170L139 187L140 187L139 170M201 171L201 172L205 171L201 171M273 170L273 171L278 172L278 171L273 170z"/>
<path style="fill:#ce4a41; stroke:none;" d="M316 170L316 171L319 171L316 170z"/>
<path style="fill:#69735f; stroke:none;" d="M319 170L319 171L326 171L319 170z"/>
<path style="fill:#ce4a41; stroke:none;" d="M326 170L326 171L330 171L326 170z"/>
<path style="fill:#f2c748; stroke:none;" d="M115 171L116 172L115 171M125 171L126 172L125 171M132 171L132 175L133 175L132 171z"/>
<path style="fill:#ce4a41; stroke:none;" d="M320 171L320 172L326 172L320 171M355 171L356 172L355 171z"/>
<path style="fill:#f2c748; stroke:none;" d="M363.333 171.667L363.667 172.333L363.333 171.667M116 172L117 173L116 172M127 172L128 173L127 172z"/>
<path style="fill:#69735f; stroke:none;" d="M198 174L201 172L198 174M278 172L281 174L278 172z"/>
<path style="fill:#ce4a41; stroke:none;" d="M354 172L355 173L354 172z"/>
<path style="fill:#f2c748; stroke:none;" d="M117 173L118 174L117 173M128 173L129 174L128 173z"/>
<path style="fill:#ce4a41; stroke:none;" d="M353 173L354 174L353 173z"/>
<path style="fill:#f2c748; stroke:none;" d="M362 173L363 174L362 173M129 174L130 175L129 174z"/>
<path style="fill:#ce4a41; stroke:none;" d="M139 174L139 182L140 182L139 174z"/>
<path style="fill:#69735f; stroke:none;" d="M194 177L198 174L194 177M281 174L284 176L281 174z"/>
<path style="fill:#f2c748; stroke:none;" d="M361.333 174.667L361.667 175.333L361.333 174.667M118 175L119 176L118 175M130.667 175.333L131.333 175.667L130.667 175.333z"/>
<path style="fill:#ce4a41; stroke:none;" d="M352 175L353 176L352 175z"/>
<path style="fill:#f2c748; stroke:none;" d="M119 176L120 177L119 176z"/>
<path style="fill:#69735f; stroke:none;" d="M284 176L287 178L284 176z"/>
<path style="fill:#ce4a41; stroke:none;" d="M351 176L352 177L351 176z"/>
<path style="fill:#f2c748; stroke:none;" d="M360 176L361 177L360 176z"/>
<path style="fill:#69735f; stroke:none;" d="M193 177L194 178L193 177z"/>
<path style="fill:#ce4a41; stroke:none;" d="M350 177L351 178L350 177z"/>
<path style="fill:#f2c748; stroke:none;" d="M359 177L360 178L359 177M120 178L121 179L120 178z"/>
<path style="fill:#69735f; stroke:none;" d="M192 178L193 179L192 178M287 178L288 179L287 178z"/>
<path style="fill:#f2c748; stroke:none;" d="M358.333 178.667L358.667 179.333L358.333 178.667M121.333 179.667L121.667 180.333L121.333 179.667z"/>
<path style="fill:#69735f; stroke:none;" d="M191 179L192 180L191 179M288 179L289 180L288 179M190 180L191 181L190 180M289 180L290 181L289 180z"/>
<path style="fill:#f2c748; stroke:none;" d="M357 180L358 181L357 180z"/>
<path style="fill:#69735f; stroke:none;" d="M189 181L190 182L189 181z"/>
<path style="fill:#f2c748; stroke:none;" d="M211 181.6C194.243 182.433 204.482 200.758 217 199.88C233.745 198.705 223.799 180.963 211 181.6z"/>
<path style="fill:#69735f; stroke:none;" d="M290 181L291 182L290 181z"/>
<path style="fill:#ce4a41; stroke:none;" d="M347 181L348 182L347 181z"/>
<path style="fill:#f2c748; stroke:none;" d="M356 181L357 182L356 181z"/>
<path style="fill:#69735f; stroke:none;" d="M188 182L189 183L188 182M291 182L292 183L291 182z"/>
<path style="fill:#ce4a41; stroke:none;" d="M346 182L347 183L346 182z"/>
<path style="fill:#f2c748; stroke:none;" d="M122.333 183.667L122.667 184.333L122.333 183.667z"/>
<path style="fill:#69735f; stroke:none;" d="M187 183L188 184L187 183M292 183L293 184L292 183z"/>
<path style="fill:#ce4a41; stroke:none;" d="M345 183L346 184L345 183z"/>
<path style="fill:#f2c748; stroke:none;" d="M355 183L356 184L355 183z"/>
<path style="fill:#69735f; stroke:none;" d="M129 184L129 190L130 190L130 186L135 194L136 194C135.111 189.406 133.212 186.153 129 184M186 184L187 185L186 184M293 184L294 185L293 184z"/>
<path style="fill:#f2c748; stroke:none;" d="M354 184L355 185L354 184z"/>
<path style="fill:#69735f; stroke:none;" d="M185 185L184 188L185 185M294 185L295 186L294 185z"/>
<path style="fill:#ce4a41; stroke:none;" d="M344 185L345 186L344 185z"/>
<path style="fill:#f2c748; stroke:none;" d="M353 185L354 186L353 185M123 186L123 195L124 195L123 186z"/>
<path style="fill:#ce4a41; stroke:none;" d="M130 186L130 192L131 192L132 186L130 186M140 186L142 189L140 186z"/>
<path style="fill:#69735f; stroke:none;" d="M295 186L296 187L295 186z"/>
<path style="fill:#ce4a41; stroke:none;" d="M343 186L344 187L343 186z"/>
<path style="fill:#f2c748; stroke:none;" d="M352 186L353 187L352 186z"/>
<path style="fill:#69735f; stroke:none;" d="M296 187L298 190L296 187z"/>
<path style="fill:#ce4a41; stroke:none;" d="M342 187L343 188L342 187M132 188L133 189L132 188z"/>
<path style="fill:#69735f; stroke:none;" d="M140 188L142 191L140 188M182 188L182 190L184 188L182 188z"/>
<path style="fill:#ce4a41; stroke:none;" d="M341 188L342 189L341 188z"/>
<path style="fill:#f2c748; stroke:none;" d="M350.333 188.667L350.667 189.333L350.333 188.667z"/>
<path style="fill:#ce4a41; stroke:none;" d="M133.333 189.667L133.667 190.333L133.333 189.667M340 189L341 190L340 189M142.333 190.667L142.667 191.333L142.333 190.667z"/>
<path style="fill:#69735f; stroke:none;" d="M181.333 190.667L181.667 191.333L181.333 190.667M298 190L300 193L298 190z"/>
<path style="fill:#f2c748; stroke:none;" d="M349 190L350 191L349 190M348 191L349 192L348 191z"/>
<path style="fill:#69735f; stroke:none;" d="M130 192C130 205.749 130.714 217.824 135 231L136 231L131.17 207L130 192z"/>
<path style="fill:#ce4a41; stroke:none;" d="M134 192L135 193L134 192z"/>
<path style="fill:#69735f; stroke:none;" d="M142 192L143 204L139 199L138 199L144 206L142 192M180.333 192.667L180.667 193.333L180.333 192.667z"/>
<path style="fill:#f2c748; stroke:none;" d="M347 192L348 193L347 192z"/>
<path style="fill:#ce4a41; stroke:none;" d="M131 193L131 210L132 210L131 193z"/>
<path style="fill:#69735f; stroke:none;" d="M300 193L301 197L302 197L300 193z"/>
<path style="fill:#ce4a41; stroke:none;" d="M337 193L338 194L337 193z"/>
<path style="fill:#f2c748; stroke:none;" d="M346 193L347 194L346 193z"/>
<path style="fill:#ce4a41; stroke:none;" d="M135.333 194.667L135.667 195.333L135.333 194.667z"/>
<path style="fill:#69735f; stroke:none;" d="M179 194L178 197L179 194z"/>
<path style="fill:#ce4a41; stroke:none;" d="M336 194L337 195L336 194z"/>
<path style="fill:#69735f; stroke:none;" d="M136 195L138 198L136 195z"/>
<path style="fill:#ce4a41; stroke:none;" d="M335 195L336 196L335 195z"/>
<path style="fill:#f2c748; stroke:none;" d="M345 195L346 196L345 195z"/>
<path style="fill:#ce4a41; stroke:none;" d="M334 196L335 197L334 196z"/>
<path style="fill:#f2c748; stroke:none;" d="M344 196L345 197L344 196z"/>
<path style="fill:#ce4a41; stroke:none;" d="M136 197L137 198L136 197z"/>
<path style="fill:#69735f; stroke:none;" d="M177 197L176 202L177 202L177 197M302 197L303 201L304 201L302 197z"/>
<path style="fill:#ce4a41; stroke:none;" d="M333.333 197.667L333.667 198.333L333.333 197.667z"/>
<path style="fill:#f2c748; stroke:none;" d="M343 197L344 198L343 197z"/>
<path style="fill:#ce4a41; stroke:none;" d="M137.333 198.667L137.667 199.333L137.333 198.667z"/>
<path style="fill:#f2c748; stroke:none;" d="M342 198L343 199L342 198M364.667 198.333L365.333 198.667L364.667 198.333M368.667 198.333L369.333 198.667L368.667 198.333z"/>
<path style="fill:#ce4a41; stroke:none;" d="M332 199L333 200L332 199z"/>
<path style="fill:#f2c748; stroke:none;" d="M341 199L342 200L341 199z"/>
<path style="fill:#ce4a41; stroke:none;" d="M138 200L139 201L138 200M331.333 200.667L331.667 201.333L331.333 200.667z"/>
<path style="fill:#f2c748; stroke:none;" d="M340 200L341 201L340 200M363 200L364 201L363 200M370 200L370 217L371 217L370 200z"/>
<path style="fill:#69735f; stroke:none;" d="M304 201L305 206L306 206L304 201z"/>
<path style="fill:#f2c748; stroke:none;" d="M339 201L340 202L339 201M362 201L363 202L362 201z"/>
<path style="fill:#ce4a41; stroke:none;" d="M139 202L140 203L139 202z"/>
<path style="fill:#69735f; stroke:none;" d="M175.333 202.667L175.667 203.333L175.333 202.667z"/>
<path style="fill:#f2c748; stroke:none;" d="M338 202L338 206L339 206L338 202z"/>
<path style="fill:#ce4a41; stroke:none;" d="M330 203L330 206L331 206L330 203z"/>
<path style="fill:#f2c748; stroke:none;" d="M361 203L362 204L361 203z"/>
<path style="fill:#ce4a41; stroke:none;" d="M140 204L141 205L140 204z"/>
<path style="fill:#69735f; stroke:none;" d="M174 204L174 207L175 207L174 204z"/>
<path style="fill:#f2c748; stroke:none;" d="M206 206C213.415 220.713 221.356 198.971 206 206M360 204L361 205L360 204z"/>
<path style="fill:#ce4a41; stroke:none;" d="M141 205L142 206L141 205z"/>
<path style="fill:#f2c748; stroke:none;" d="M358.667 205.333L359.333 205.667L358.667 205.333z"/>
<path style="fill:#ce4a41; stroke:none;" d="M142 206L143 207L142 206z"/>
<path style="fill:#69735f; stroke:none;" d="M306 206L307 213L308 213L306 206z"/>
<path style="fill:#ce4a41; stroke:none;" d="M331.333 206.667L331.667 207.333L331.333 206.667z"/>
<path style="fill:#f2c748; stroke:none;" d="M339 206L340 207L339 206M356.667 206.333L357.333 206.667L356.667 206.333z"/>
<path style="fill:#69735f; stroke:none;" d="M173 207L172 214L173 214L173 207M332 207C337.196 217.881 350.51 217.412 360 213L360 212C347.977 215.911 341.818 214.847 332 207z"/>
<path style="fill:#f2c748; stroke:none;" d="M340.667 207.333L341.333 207.667L340.667 207.333M355 207L356 208L355 207M343.667 208.333L344.333 208.667L343.667 208.333M351.667 208.333L352.333 208.667L351.667 208.333M124 209L124 214L125 214L124 209z"/>
<path style="fill:#ce4a41; stroke:none;" d="M332 209L333 210L332 209z"/>
<path style="fill:#f2c748; stroke:none;" d="M346 209L346 210L350 210L346 209z"/>
<path style="fill:#ce4a41; stroke:none;" d="M333 210L334 211L333 210z"/>
<path style="fill:#69735f; stroke:none;" d="M361 211L361 212L364 211C362.409 229.249 350.521 243.122 336 253L336 254C353.736 245.686 362.224 228.296 366 210L361 211z"/>
<path style="fill:#ce4a41; stroke:none;" d="M334 211L335 212L334 211M362 211L363 216L364 216L362 211M335 212L336 213L335 212M360.667 212.333L361.333 212.667L360.667 212.333z"/>
<path style="fill:#69735f; stroke:none;" d="M308 213L309 228L310 228L308 213z"/>
<path style="fill:#ce4a41; stroke:none;" d="M337 213L338 214L337 213M359 213L360 214L359 213z"/>
<path style="fill:#69735f; stroke:none;" d="M171 214L170 223L171 223L171 214z"/>
<path style="fill:#ce4a41; stroke:none;" d="M338.667 214.333L339.333 214.667L338.667 214.333M356.667 214.333L357.333 214.667L356.667 214.333z"/>
<path style="fill:#f2c748; stroke:none;" d="M125 215L125 219L126 219L125 215z"/>
<path style="fill:#ce4a41; stroke:none;" d="M132.333 215.667L132.667 216.333L132.333 215.667M341 215L342 216L341 215M354 215L355 216L354 215z"/>
<path style="fill:#342b28; stroke:none;" d="M257 247C255.358 249.931 254.196 252.585 254.047 256C252.853 283.374 292.33 267.976 276.2 247.105C274.253 244.586 271.839 243.259 269 242L269 240C275.789 237.514 283.972 232.644 288.282 226.675C291.563 222.13 289.39 215.567 282.999 216.452C273.571 217.758 236.521 241.44 257 247z"/>
<path style="fill:#ce4a41; stroke:none;" d="M346 216L346 217L350 217L346 216M362.333 217.667L362.667 218.333L362.333 217.667M133 219L133 222L134 222L133 219z"/>
<path style="fill:#342b28; stroke:none;" d="M205 238L205 239C201.899 240.162 199.152 241.423 197.133 244.188C180.386 267.132 225.597 275.969 217.196 249C216.012 245.198 213.199 242.231 211 239C217.202 240.151 225.712 241.472 231.957 240.566C235.405 240.066 238.395 236.689 236.153 233.278C234.051 230.08 228.42 229.244 225 228.272C215.404 225.542 204.962 221.083 195 220.2C188.637 219.636 180.563 226.325 186.573 232.362C190.744 236.551 199.361 237.742 205 238z"/>
<path style="fill:#f2c748; stroke:none;" d="M369.333 220.667L369.667 221.333L369.333 220.667M126 221L126 224L127 224L126 221z"/>
<path style="fill:#ce4a41; stroke:none;" d="M361.333 221.667L361.667 222.333L361.333 221.667z"/>
<path style="fill:#f2c748; stroke:none;" d="M368 222L368 225L369 225L368 222z"/>
<path style="fill:#ce4a41; stroke:none;" d="M134 223L134 226L135 226L134 223z"/>
<path style="fill:#69735f; stroke:none;" d="M259 239C267.315 236.463 278.77 230.9 283 223C274.465 225.654 264.325 231.787 259 239M169 224C168.901 228.79 170.003 246.421 165.682 248.882C162.85 250.495 158.02 248.407 155 248L155 249C158.232 249.836 164.392 252.292 167.397 249.968C170.926 247.239 170.641 227.911 169 224z"/>
<path style="fill:#ce4a41; stroke:none;" d="M360 224L361 225L360 224z"/>
<path style="fill:#f2c748; stroke:none;" d="M127 225L127 228L128 228L127 225z"/>
<path style="fill:#69735f; stroke:none;" d="M190 229L221 234C215.023 230.221 194.916 222.184 190 229z"/>
<path style="fill:#ce4a41; stroke:none;" d="M359.333 226.667L359.667 227.333L359.333 226.667z"/>
<path style="fill:#f2c748; stroke:none;" d="M367.333 226.667L367.667 227.333L367.333 226.667z"/>
<path style="fill:#ce4a41; stroke:none;" d="M135 227L136 228L135 227z"/>
<path style="fill:#69735f; stroke:none;" d="M310.333 228.667L310.667 229.333L310.333 228.667z"/>
<path style="fill:#f2c748; stroke:none;" d="M366.333 228.667L366.667 229.333L366.333 228.667M128.333 229.667L128.667 230.333L128.333 229.667z"/>
<path style="fill:#ce4a41; stroke:none;" d="M358 229L359 230L358 229M136 230L138 233L136 230z"/>
<path style="fill:#69735f; stroke:none;" d="M309 230L308 250L309 250L309 230z"/>
<path style="fill:#f2c748; stroke:none;" d="M365.333 230.667L365.667 231.333L365.333 230.667M129.333 231.667L129.667 232.333L129.333 231.667z"/>
<path style="fill:#ce4a41; stroke:none;" d="M357 231L358 232L357 231z"/>
<path style="fill:#69735f; stroke:none;" d="M136 232L137 233L136 232z"/>
<path style="fill:#ce4a41; stroke:none;" d="M356 232L357 233L356 232z"/>
<path style="fill:#f2c748; stroke:none;" d="M364.333 232.667L364.667 233.333L364.333 232.667z"/>
<path style="fill:#69735f; stroke:none;" d="M137 233C139.544 240.483 146.566 245.813 154 248L154 247L137 233z"/>
<path style="fill:#f2c748; stroke:none;" d="M130 234L131 235L130 234z"/>
<path style="fill:#ce4a41; stroke:none;" d="M138 234L139 235L138 234M355 234L356 235L355 234z"/>
<path style="fill:#f2c748; stroke:none;" d="M363.333 234.667L363.667 235.333L363.333 234.667M131.333 235.667L131.667 236.333L131.333 235.667z"/>
<path style="fill:#ce4a41; stroke:none;" d="M139 235L140 236L139 235z"/>
<path style="fill:#f2c748; stroke:none;" d="M362.333 236.667L362.667 237.333L362.333 236.667z"/>
<path style="fill:#ce4a41; stroke:none;" d="M140 237L141 238L140 237M353 237L354 238L353 237z"/>
<path style="fill:#f2c748; stroke:none;" d="M132 238L133 239L132 238z"/>
<path style="fill:#ce4a41; stroke:none;" d="M141 238L142 239L141 238M167 238L167 248L168 248L167 238z"/>
<path style="fill:#f2c748; stroke:none;" d="M361 238L362 239L361 238M133 239L134 240L133 239z"/>
<path style="fill:#ce4a41; stroke:none;" d="M142 239L143 240L142 239M352 239L353 240L352 239z"/>
<path style="fill:#f2c748; stroke:none;" d="M360.333 239.667L360.667 240.333L360.333 239.667z"/>
<path style="fill:#ce4a41; stroke:none;" d="M143 240L144 241L143 240M351 240L352 241L351 240z"/>
<path style="fill:#f2c748; stroke:none;" d="M134 241L135 242L134 241z"/>
<path style="fill:#ce4a41; stroke:none;" d="M144 241L145 242L144 241M350 241L351 242L350 241z"/>
<path style="fill:#f2c748; stroke:none;" d="M359 241L360 242L359 241M135 242L136 243L135 242z"/>
<path style="fill:#ce4a41; stroke:none;" d="M349 242L350 243L349 242z"/>
<path style="fill:#f2c748; stroke:none;" d="M358 242L359 243L358 242M136 243L137 244L136 243z"/>
<path style="fill:#ce4a41; stroke:none;" d="M147 243L148 244L147 243M348 243L349 244L348 243z"/>
<path style="fill:#f2c748; stroke:none;" d="M137 244L138 245L137 244z"/>
<path style="fill:#ce4a41; stroke:none;" d="M148 244L149 245L148 244z"/>
<path style="fill:#69735f; stroke:none;" d="M200 254C204.425 252.936 206.68 252.624 210 256L212 256C215.142 243.387 197.757 241.834 200 254z"/>
<path style="fill:#ce4a41; stroke:none;" d="M347 244L348 245L347 244z"/>
<path style="fill:#f2c748; stroke:none;" d="M357 244L358 245L357 244M138 245L139 246L138 245z"/>
<path style="fill:#ce4a41; stroke:none;" d="M150.667 245.333L151.333 245.667L150.667 245.333M346 245L347 246L346 245z"/>
<path style="fill:#f2c748; stroke:none;" d="M356 245L357 246L356 245M139 246L140 247L139 246z"/>
<path style="fill:#ce4a41; stroke:none;" d="M153 246L154 247L153 246z"/>
<path style="fill:#f2c748; stroke:none;" d="M202 248L205 247L202 248z"/>
<path style="fill:#fefdfd; stroke:none;" d="M201 251L211 252C208.637 246.239 204.267 245.42 201 251z"/>
<path style="fill:#f2c748; stroke:none;" d="M207.667 246.333L208.333 246.667L207.667 246.333z"/>
<path style="fill:#ce4a41; stroke:none;" d="M345 246L346 247L345 246z"/>
<path style="fill:#f2c748; stroke:none;" d="M355 246L356 247L355 246M140 247L141 248L140 247z"/>
<path style="fill:#ce4a41; stroke:none;" d="M154.667 247.333L155.333 247.667L154.667 247.333z"/>
<path style="fill:#f2c748; stroke:none;" d="M209.333 247.667L209.667 248.333L209.333 247.667z"/>
<path style="fill:#69735f; stroke:none;" d="M260 261L261 261C264.192 252.963 271.507 254.107 271 263L275 255L274 255L274 258C268.805 253.713 266.028 252.28 260 256C262.985 248.46 268.009 247.831 273 254C273.698 248.934 267.236 246.024 263.109 248.758C258.643 251.716 259.165 256.433 260 261z"/>
<path style="fill:#ce4a41; stroke:none;" d="M343 247L344 248L343 247z"/>
<path style="fill:#f2c748; stroke:none;" d="M354 247L355 248L354 247M141.667 248.333L142.333 248.667L141.667 248.333z"/>
<path style="fill:#ce4a41; stroke:none;" d="M158 248L158 249L161 249L158 248z"/>
<path style="fill:#f2c748; stroke:none;" d="M264 249L264 250L272 252C269.489 249.161 267.749 248.304 264 249z"/>
<path style="fill:#ce4a41; stroke:none;" d="M342 248L343 249L342 248z"/>
<path style="fill:#f2c748; stroke:none;" d="M353 248L354 249L353 248M143 249L144 250L143 249z"/>
<path style="fill:#ce4a41; stroke:none;" d="M162 249L162 250L167 250L162 249z"/>
<path style="fill:#f2c748; stroke:none;" d="M201 249L202 250L201 249M210 249L211 250L210 249z"/>
<path style="fill:#fefdfd; stroke:none;" d="M261 255C265.994 252.611 268.311 253.262 273 256C270.32 249.335 263.819 247.163 261 255z"/>
<path style="fill:#ce4a41; stroke:none;" d="M309 249L310 250L309 249M341 249L342 250L341 249z"/>
<path style="fill:#f2c748; stroke:none;" d="M352 249L353 250L352 249M144.667 250.333L145.333 250.667L144.667 250.333M204 250L204 251L207 251L204 250M262 250L263 251L262 250z"/>
<path style="fill:#ce4a41; stroke:none;" d="M308 250L308 258L309 258L308 250M339 250L340 251L339 250z"/>
<path style="fill:#f2c748; stroke:none;" d="M351 250L352 251L351 250M146.667 251.333L147.333 251.667L146.667 251.333M200 251L200 252L204 252L200 251M208 251L209 252L208 251M209 253C211.396 253.575 211.487 253.475 212 251L209 253z"/>
<path style="fill:#ce4a41; stroke:none;" d="M338 251L339 252L338 251z"/>
<path style="fill:#f2c748; stroke:none;" d="M350 251L351 252L350 251M148.667 252.333L149.333 252.667L148.667 252.333M261 252L262 253L261 252M265 252L265 253L268 253L265 252z"/>
<path style="fill:#ce4a41; stroke:none;" d="M336 252L337 253L336 252z"/>
<path style="fill:#f2c748; stroke:none;" d="M348.667 252.333L349.333 252.667L348.667 252.333M150.667 253.333L151.333 253.667L150.667 253.333M260 253L262 256L260 253M263 253L264 254L263 253M269 253L270 254L269 253M272 253L272 258L272 253z"/>
<path style="fill:#ce4a41; stroke:none;" d="M334.667 253.333L335.333 253.667L334.667 253.333z"/>
<path style="fill:#f2c748; stroke:none;" d="M347 253L348 254L347 253M153.667 254.333L154.333 254.667L153.667 254.333M270 254L271 255L270 254z"/>
<path style="fill:#69735f; stroke:none;" d="M307 254C305.978 262.89 310.615 261.933 318 261L318 260L308 261L307 254z"/>
<path style="fill:#ce4a41; stroke:none;" d="M332 254L329 255L329 256L333 255L332 254z"/>
<path style="fill:#69735f; stroke:none;" d="M332 256L335 254L332 256z"/>
<path style="fill:#f2c748; stroke:none;" d="M346 254L347 255L346 254M156.667 255.333L157.333 255.667L156.667 255.333M271 255L272 256L271 255M345 255L346 256L345 255M161 256L161 257L166 257L161 256z"/>
<path style="fill:#ce4a41; stroke:none;" d="M327 256L328 257L327 256z"/>
<path style="fill:#69735f; stroke:none;" d="M319 259L319 260L331 257L319 259z"/>
<path style="fill:#f2c748; stroke:none;" d="M343 256L344 257L343 256M167 257L169 259L169 257L167 257z"/>
<path style="fill:#ce4a41; stroke:none;" d="M324.667 257.333L325.333 257.667L324.667 257.333z"/>
<path style="fill:#f2c748; stroke:none;" d="M342 257L343 258L342 257z"/>
<path style="fill:#ce4a41; stroke:none;" d="M320.667 258.333L321.333 258.667L320.667 258.333z"/>
<path style="fill:#f2c748; stroke:none;" d="M339.667 258.333L340.333 258.667L339.667 258.333M169 259L170 260L169 259z"/>
<path style="fill:#ce4a41; stroke:none;" d="M315 259L315 260L319 260L315 259z"/>
<path style="fill:#f2c748; stroke:none;" d="M338 259L339 260L338 259z"/>
<path style="fill:#69735f; stroke:none;" d="M169.333 260.667L169.667 261.333L169.333 260.667z"/>
<path style="fill:#ce4a41; stroke:none;" d="M308 260L308 261L312 261L308 260z"/>
<path style="fill:#f2c748; stroke:none;" d="M336.667 260.333L337.333 260.667L336.667 260.333M334 261L335 262L334 261M169 262L169 269L170 269L169 262M331.667 262.333L332.333 262.667L331.667 262.333z"/>
<path style="fill:#69735f; stroke:none;" d="M170 263C170.001 274.093 172.037 285.068 173.725 296C174.333 299.935 176.585 306.194 174.883 309.96C172.101 316.114 162.061 319.56 156 321L156 322C162.143 321.371 172.721 317.37 175.968 311.699C177.94 308.256 176.146 302.681 175.576 299C173.873 288.024 174.502 273.028 170 263z"/>
<path style="fill:#f2c748; stroke:none;" d="M329.667 263.333L330.333 263.667L329.667 263.333M325.667 264.333L326.333 264.667L325.667 264.333M136 265L136 266L143 266L136 265M322 265L322 266L325 266L322 265M133 266L134 267L133 266M144.667 266.333L145.333 266.667L144.667 266.333M316 266L316 267L320 267L316 266M132 267L133 268L132 267M146 267L147 268L146 267M311 267L311 268L315 268L311 267M333 267L333 268L337 268L333 267M130 268L131 269L130 268M148 268L149 269L148 268M307.667 268.333L308.333 268.667L307.667 268.333M329.667 268.333L330.333 268.667L329.667 268.333M339.667 268.333L340.333 268.667L339.667 268.333M149 269L150 270L149 269M306.333 269.667L306.667 270.333L306.333 269.667M328 269L329 270L328 269M341 269L342 270L341 269M129 270L130 271L129 270M150.333 270.667L150.667 271.333L150.333 270.667M326 270L327 271L326 270M343 270L344 271L343 270M128 271L129 272L128 271z"/>
<path style="fill:#69735f; stroke:none;" d="M137.604 272.032C132.41 276.005 141.428 281.922 145.638 278.969C150.514 275.55 141.512 269.042 137.604 272.032z"/>
<path style="fill:#f2c748; stroke:none;" d="M325 271L326 272L325 271M344 271L345 272L344 271M127.333 272.667L127.667 273.333L127.333 272.667M138 272L139 273L138 272z"/>
<path style="fill:#fefdfd; stroke:none;" d="M139 272C137.751 277.363 141.395 278.254 146 277L139 272z"/>
<path style="fill:#f2c748; stroke:none;" d="M140.667 272.333L141.333 272.667L140.667 272.333M151 272L152 273L151 272M324 272L325 273L324 272M345 272L346 273L345 272M142.667 273.333L143.333 273.667L142.667 273.333M152.333 273.667L152.667 274.333L152.333 273.667M170 273L170 279L171 279L170 273M323 273L324 274L323 273z"/>
<path style="fill:#69735f; stroke:none;" d="M332.015 273.762C325.027 276.286 327.985 284.316 334.852 281.257C339.87 279.021 337.589 271.748 332.015 273.762z"/>
<path style="fill:#f2c748; stroke:none;" d="M126 274L127 275L126 274M144 274L145 275L144 274M322.333 274.667L322.667 275.333L322.333 274.667M328 280L334 281L334 280L329 280L336 275L335 280C339.572 273.683 330.725 274.477 328 280M346 274L347 275L346 274M125.333 275.667L125.667 276.333L125.333 275.667M145 275L146 276L145 275M305 275L305 279L306 279L305 275z"/>
<path style="fill:#fefdfd; stroke:none;" d="M329 280C333.176 279.863 335.272 279.362 336 275L329 280z"/>
<path style="fill:#f2c748; stroke:none;" d="M347 275L348 276L347 275M153 276L153 279L154 279L153 276M124 277L125 278L124 277M138.667 277.333L139.333 277.667L138.667 277.333M145 277L146 278L145 277M321 277L321 283L322 283L321 277M348.333 277.667L348.667 278.333L348.333 277.667M141 278L141 279L145 279L141 278z"/>
<path style="fill:#342b28; stroke:none;" d="M201.001 278.649C182.772 284.174 186.683 313.25 200.015 321.728C216.423 332.162 224.049 314.974 239 316.423C249.11 317.403 253.738 328.803 265 324.891C276.119 321.029 297.204 290.205 280.956 281.456C269.199 275.126 255.958 284.836 244 284.821C229.282 284.803 216.347 273.997 201.001 278.649z"/>
<path style="fill:#f2c748; stroke:none;" d="M123.333 279.667L123.667 280.333L123.333 279.667z"/>
<path style="fill:#69735f; stroke:none;" d="M155 323L155 322C129.405 321.983 122.455 300.941 131 280L139 284C127.166 273.524 123.891 291.426 125.301 301C127.66 317.017 140.43 323 155 323z"/>
<path style="fill:#f2c748; stroke:none;" d="M152.333 279.667L152.667 280.333L152.333 279.667M349 279L350 280L349 279M131 280L132 281L131 280M171 280L171 285L172 285L171 280M304 280L304 285L305 285L304 280M122.333 281.667L122.667 282.333L122.333 281.667M130 281L131 282L130 281M132 281L133 282L132 281M350.333 281.667L350.667 282.333L350.333 281.667M134 282L135 283L134 282M151 282L152 283L151 282z"/>
<path style="fill:#69735f; stroke:none;" d="M240 296L240 298L204 299L204 300L263 297L263 296L196 295C197.81 283.271 208.773 283.981 218 284C212.046 280.834 203.255 281.5 198.214 286.278C196.44 287.959 193.492 291.807 195.133 294.397C196.862 297.125 203.296 296 206 296L240 296z"/>
<path style="fill:#f2c748; stroke:none;" d="M342 282L344 284L344 282L342 282M129.333 283.667L129.667 284.333L129.333 283.667M135 283L136 284L135 283M150 283L151 284L150 283M208.667 283.333L209.333 283.667L208.667 283.333M341 283L342 284L341 283M351 283L352 284L351 283M137 284L137 285L140 285L137 284M147.667 284.333L148.333 284.667L147.667 284.333M203.667 284.333L204.333 284.667L203.667 284.333z"/>
<path style="fill:#fefdfd; stroke:none;" d="M196 293C217.978 299.496 248.067 295.527 271 296C265.617 298.873 259.913 297.685 254 298.09C240.826 298.992 227.055 298.862 214 300.576C210.283 301.064 199.388 299.18 197.121 302.603C192.849 309.056 205.037 317.51 210 318.431C219.401 320.177 226.134 310.973 235 310.105C245.532 309.074 249.045 316.703 258 318.667C269.477 321.183 279.598 301.507 279.446 292.015C279.317 284.007 268.909 286.156 264 287.375C256.981 289.119 249.351 292.471 242 291.696C227.7 290.189 205.026 274.437 196 293z"/>
<path style="fill:#f2c748; stroke:none;" d="M215 284L215 285L221 286L215 284z"/>
<path style="fill:#69735f; stroke:none;" d="M219 284L219 285L225 286L219 284M226 286L226 287C235.28 290.667 244.177 291.642 254 289.83C260.926 288.553 267.692 284.409 274.981 286.318C280.808 287.844 280.04 293.542 278.384 298C275.151 306.703 270.934 313.944 263 319C273.04 319.824 287.311 292.647 277.852 285.742C270.229 280.178 255.245 288.678 247 289.71C239.639 290.631 233.075 287.203 226 286z"/>
<path style="fill:#f2c748; stroke:none;" d="M322 284L323 285L322 284M340 284L341 285L340 284M344.333 284.667L344.667 285.333L344.333 284.667M121.333 285.667L121.667 286.333L121.333 285.667M128.333 285.667L128.667 286.333L128.333 285.667M141 285L141 286L146 286L141 285M201 285L202 286L201 285M323 285L324 286L323 285M339 285L340 286L339 285M200 286L201 287L200 286M223 286L223 287L226 287L223 286M264 286L264 287L268 287L264 286M276.667 286.333L277.333 286.667L276.667 286.333M325.667 286.333L326.333 286.667L325.667 286.333M336.667 286.333L337.333 286.667L336.667 286.333M345.333 286.667L345.667 287.333L345.333 286.667M352.333 286.667L352.667 287.333L352.333 286.667M226 287L227 288L226 287M262.667 287.333L263.333 287.667L262.667 287.333M278 287L279 288L278 287M327.667 287.333L328.333 287.667L327.667 287.333M333 287L333 288L336 288L333 287M120 288L120 291L121 291L120 288M198 288L199 289L198 288M229.667 288.333L230.333 288.667L229.667 288.333M258.667 288.333L259.333 288.667L258.667 288.333M279.333 288.667L279.667 289.333L279.333 288.667M127 289L127 292L128 292L127 289M172 289L172 293L173 293L172 289M197 289L198 290L197 289M231.667 289.333L232.333 289.667L231.667 289.333M256 289L257 290L256 289M303 289L303 293L304 293L303 289M353.333 289.667L353.667 290.333L353.333 289.667M196.333 290.667L196.667 291.333L196.333 290.667M235 290L235 291L239 291L235 290M249 290L249 291L253 291L249 290M346 290L346 293L347 293L346 290M240 291L240 292L248 292L240 291M126 293L126 302L127 302L126 293M196 293C199.413 296.906 209.07 295 214 295L214 294L196 293M279 293L279 296L280 296L279 293M347 293L347 306L348 306L347 293M173 294L173 298L174 298L173 294M302 294L302 299L303 299L302 294M354 294L354 305L355 305L354 294M244 295L244 296L263 296L263 297L260 297L260 298L271 297L244 295M119.333 296.667L119.667 297.333L119.333 296.667M278.333 296.667L278.667 297.333L278.333 296.667M243 298L243 299L251 299L243 298M222.667 299.333L223.333 299.667L222.667 299.333M226 299L226 300L238 300L226 299M277.333 299.667L277.667 300.333L277.333 299.667z"/>
<path style="fill:#69735f; stroke:none;" d="M194 300C194.076 303.214 194.375 306.073 195.84 309C207.25 331.799 223.166 310.649 239 311.61C247.996 312.156 253.148 320.515 262 321L262 320C253.355 319.037 248.118 310.618 239 310.108C223.957 309.267 210.156 329.258 198.283 309.996C196.741 307.494 195.849 304.789 195 302L203 301L194 300z"/>
<path style="fill:#f2c748; stroke:none;" d="M203 300L203 301L215 301L203 300M174 301L174 305L175 305L174 301M196 301L197 302L196 301M195.333 302.667L195.667 303.333L195.333 302.667M276 302L277 303L276 302M120 303L120 306L121 306L120 303M127.333 303.667L127.667 304.333L127.333 303.667M301 303L301 306L302 306L301 303M275.333 304.667L275.667 305.333L275.333 304.667M196 305L196 308L197 308L196 305M175 306L175 311L176 311L175 306M274 306L275 307L274 306M346.333 306.667L346.667 307.333L346.333 306.667M121.333 307.667L121.667 308.333L121.333 307.667M128 307L129 308L128 307M300 307L300 311L301 311L300 307M129.333 308.667L129.667 309.333L129.333 308.667M197 308L198 309L197 308M273 308L274 309L273 308M353.333 308.667L353.667 309.333L353.333 308.667M345.333 309.667L345.667 310.333L345.333 309.667M122.333 310.667L122.667 311.333L122.333 310.667M130.333 310.667L130.667 311.333L130.333 310.667M198 310L199 311L198 310M231 310L231 311L234 311L231 310M242 310L242 311L245 311L242 310M272 310L273 311L272 310M352.333 310.667L352.667 311.333L352.333 310.667M174 311L175 312L174 311M229.667 311.333L230.333 311.667L229.667 311.333M245.667 311.333L246.333 311.667L245.667 311.333M271 311L272 312L271 311M344.333 311.667L344.667 312.333L344.333 311.667M123 312L124 313L123 312M131 312L132 313L131 312M173 312L174 313L173 312M199 312L200 313L199 312M227 312L228 313L227 312M247.667 312.333L248.333 312.667L247.667 312.333M132 313L133 314L132 313M171.667 313.333L172.333 313.667L171.667 313.333M200 313L201 314L200 313M225.667 313.333L226.333 313.667L225.667 313.333M249.667 313.333L250.333 313.667L249.667 313.333M270 313L271 314L270 313M300.333 313.667L300.667 314.333L300.333 313.667M343 313L344 314L343 313M351.333 313.667L351.667 314.333L351.333 313.667M124 314L125 315L124 314M133 314L134 315L133 314M170 314L171 315L170 314M201 314L202 315L201 314M224 314L225 315L224 314M251 314L252 315L251 314M269 314L270 315L269 314M342 314L343 315L342 314M125 315L126 316L125 315M134 315L135 316L134 315M168.667 315.333L169.333 315.667L168.667 315.333M202 315L203 316L202 315M222 315L223 316L222 315M252 315L253 316L252 315M268 315L269 316L268 315M301.667 315.333L302.333 315.667L301.667 315.333M350 315L351 316L350 315M135 316L136 317L135 316M166.667 316.333L167.333 316.667L166.667 316.333M204 316L205 317L204 316M220 316L221 317L220 316M253 316L254 317L253 316M267 316L268 317L267 316M303 316L304 317L303 316M341 316L342 317L341 316M126 317L127 318L126 317M136.667 317.333L137.333 317.667L136.667 317.333M165 317L166 318L165 317M205.667 317.333L206.333 317.667L205.667 317.333M218.667 317.333L219.333 317.667L218.667 317.333M254 317L255 318L254 317M265 317L266 318L265 317M304.667 317.333L305.333 317.667L304.667 317.333M340 317L341 318L340 317M349 317L350 318L349 317M127 318L128 319L127 318M138 318L139 319L138 318M162.667 318.333L163.333 318.667L162.667 318.333M176 318L177 319L176 318M208.667 318.333L209.333 318.667L208.667 318.333M214 318L214 319L217 319L214 318M255 318L256 319L255 318M263 318L264 319L263 318M306.667 318.333L307.333 318.667L306.667 318.333M338 318L339 319L338 318M348 318L349 319L348 318M128 319L129 320L128 319M139.667 319.333L140.333 319.667L139.667 319.333M160.667 319.333L161.333 319.667L160.667 319.333M175 319L176 320L175 319M177.333 319.667L177.667 320.333L177.333 319.667M257 319L257 320L263 320L257 319M308 319L309 320L308 319M337 319L338 320L337 319M347 319L348 320L347 319M129 320L130 321L129 320M142.667 320.333L143.333 320.667L142.667 320.333M157.667 320.333L158.333 320.667L157.667 320.333M173 320L174 321L173 320M310 320L311 321L310 320M336 320L337 321L336 320M346 320L347 321L346 320M130 321L131 322L130 321M145 321L145 322L156 322L145 321M172 321L173 322L172 321M312.667 321.333L313.333 321.667L312.667 321.333M334.667 321.333L335.333 321.667L334.667 321.333M132 322L133 323L132 322M170 322L171 323L170 322M298 322L298 323L301 323L298 322M315.667 322.333L316.333 322.667L315.667 322.333M331.667 322.333L332.333 322.667L331.667 322.333M344 322L345 323L344 322M133 323L134 324L133 323M168.667 323.333L169.333 323.667L168.667 323.333M301 323L302 324L301 323M318 323L318 324L321 324L318 323M327 323L327 324L331 324L327 323M134.667 324.333L135.333 324.667L134.667 324.333M166.667 324.333L167.333 324.667L166.667 324.333M178 324L178 327L179 327L178 324M302.667 324.333L303.333 324.667L302.667 324.333M342 324L343 325L342 324M136.667 325.333L137.333 325.667L136.667 325.333M164.667 325.333L165.333 325.667L164.667 325.333M297 325L297 328L298 328L297 325M304.667 325.333L305.333 325.667L304.667 325.333M341 325L342 326L341 325M138.667 326.333L139.333 326.667L138.667 326.333M161.667 326.333L162.333 326.667L161.667 326.333M306.667 326.333L307.333 326.667L306.667 326.333M339 326L340 327L339 326M141.667 327.333L142.333 327.667L141.667 327.333M158.667 327.333L159.333 327.667L158.667 327.333M308.667 327.333L309.333 327.667L308.667 327.333M338 327L339 328L338 327M145 328L145 329L155 329L145 328M179 328L179 332L180 332L179 328M311.667 328.333L312.333 328.667L311.667 328.333M335.667 328.333L336.333 328.667L335.667 328.333M296 329L296 333L297 333L296 329M313.667 329.333L314.333 329.667L313.667 329.333M333.667 329.333L334.333 329.667L333.667 329.333M317 330L317 331L322 331L317 330M326 330L326 331L331 331L326 330M323.667 331.333L324.333 331.667L323.667 331.333M180 335L180 338L181 338L180 335M295 335L295 338L296 338L295 335M181 339L181 342L182 342L181 339M294 339L294 342L295 342L294 339M182.333 345.667L182.667 346.333L182.333 345.667M293.333 345.667L293.667 346.333L293.333 345.667M183 348L183 351L184 351L183 348M292 348L292 351L293 351L292 348M184 353L184 356L185 356L184 353M291.333 353.667L291.667 354.333L291.333 353.667M290 356L290 360L291 360L290 356M185 357L185 360L186 360L185 357M289 361L289 364L290 364L289 361M186.333 363.667L186.667 364.333L186.333 363.667M288.333 365.667L288.667 366.333L288.333 365.667M187 366L187 369L188 369L187 366M287 369L287 372L288 372L287 369M188 371L188 374L189 374L188 371M286.333 373.667L286.667 374.333L286.333 373.667M189 374L189 377L190 377L189 374M285.333 377.667L285.667 378.333L285.333 377.667M190.333 380.667L190.667 381.333L190.333 380.667M284.333 380.667L284.667 381.333L284.333 380.667M191.333 383.667L191.667 384.333L191.333 383.667M283.333 384.667L283.667 385.333L283.333 384.667M192.333 387.667L192.667 388.333L192.333 387.667M282.333 387.667L282.667 388.333L282.333 387.667M193 390L193 393L194 393L193 390M281.333 390.667L281.667 391.333L281.333 390.667M280.333 393.667L280.667 394.333L280.333 393.667M194 394L194 397L195 397L194 394M279.333 397.667L279.667 398.333L279.333 397.667M195.333 398.667L195.667 399.333L195.333 398.667M278.333 399.667L278.667 400.333L278.333 399.667M196 402L196 405L197 405L196 402M277.333 403.667L277.667 404.333L277.333 403.667M197.333 405.667L197.667 406.333L197.333 405.667M276.333 405.667L276.667 406.333L276.333 405.667M275.333 408.667L275.667 409.333L275.333 408.667M198.333 409.667L198.667 410.333L198.333 409.667M274.333 410.667L274.667 411.333L274.333 410.667M199.333 412.667L199.667 413.333L199.333 412.667M273.333 413.667L273.667 414.333L273.333 413.667M272.333 415.667L272.667 416.333L272.333 415.667M200.333 416.667L200.667 417.333L200.333 416.667M201 418L201 421L202 421L201 418M271.333 418.667L271.667 419.333L271.333 418.667M270.333 420.667L270.667 421.333L270.333 420.667M202.333 422.667L202.667 423.333L202.333 422.667M269 423L270 424L269 423M268.333 424.667L268.667 425.333L268.333 424.667M203.333 425.667L203.667 426.333L203.333 425.667M267.333 427.667L267.667 428.333L267.333 427.667M204.333 428.667L204.667 429.333L204.333 428.667M266.333 429.667L266.667 430.333L266.333 429.667M205.333 431.667L205.667 432.333L205.333 431.667M265.333 431.667L265.667 432.333L265.333 431.667M264.333 433.667L264.667 434.333L264.333 433.667M206.333 434.667L206.667 435.333L206.333 434.667M263.333 435.667L263.667 436.333L263.333 435.667M207.333 436.667L207.667 437.333L207.333 436.667M262.333 437.667L262.667 438.333L262.333 437.667M261.333 439.667L261.667 440.333L261.333 439.667M208 440L209 441L208 440M209.333 441.667L209.667 442.333L209.333 441.667M260 441L261 442L260 441M259 443L260 444L259 443M210.333 444.667L210.667 445.333L210.333 444.667M258.333 444.667L258.667 445.333L258.333 444.667M211.333 446.667L211.667 447.333L211.333 446.667M257 446L258 447L257 446M256.333 447.667L256.667 448.333L256.333 447.667M212.333 449.667L212.667 450.333L212.333 449.667M255 449L256 450L255 449M254.333 450.667L254.667 451.333L254.333 450.667M213.333 451.667L213.667 452.333L213.333 451.667M253 452L254 453L253 452M214.333 453.667L214.667 454.333L214.333 453.667M252.333 453.667L252.667 454.333L252.333 453.667M215 455L216 456L215 455M251 455L252 456L251 455M250 456L251 457L250 456M216 457L217 458L216 457M217.333 458.667L217.667 459.333L217.333 458.667M248.333 458.667L248.667 459.333L248.333 458.667M218.333 460.667L218.667 461.333L218.333 460.667M247 460L248 461L247 460M246 461L247 462L246 461M219 462L220 463L219 462M245 462L246 463L245 462M244 463L245 464L244 463M243 464L244 465L243 464M221 465L222 466L221 465M242 465L243 466L242 465M222 466L223 467L222 466M241 466L242 467L241 466M223 467L224 468L223 467M240 467L241 468L240 467M224 468L225 469L224 468M238 468L239 469L238 468M225 469L226 470L225 469M237 469L238 470L237 469M226 470L227 471L226 470M236 470L237 471L236 470M227.667 471.333L228.333 471.667L227.667 471.333M234.667 471.333L235.333 471.667L234.667 471.333M230 472L230 473L233 473L230 472z"/>
</svg>
